<svg width="50" height="14" viewBox="0 0 50 14" fill="none" xmlns="http://www.w3.org/2000/svg">
  <g clip-path="url(#clip0_1177_7481)">
    <path
      d="M3.1599 0.00521851L0.5 6.14459H2.23104L2.72186 4.91462H5.57703L6.06784 6.14459H7.8411L5.18121 0.00521851H3.1599ZM4.1468 1.42884L5.0176 3.57475H3.276L4.1468 1.42884Z"
      fill="#016FD0" />
    <path
      d="M8.02051 6.13938V0L10.4851 0.0104685L11.9154 3.96731L13.3139 0H15.7574V6.13938H14.2111V1.61728L12.5698 6.13938H11.2134L9.56683 1.61728V6.13938H8.02051Z"
      fill="#016FD0" />
    <path d="M16.8182 6.13938V0H21.8689V1.37129H18.3857V2.4233H21.7844V3.71608H18.3804V4.80473H21.8636V6.13938H16.8182Z"
      fill="#016FD0" />
    <path
      d="M22.7609 0.00521851V6.14459H24.3072V3.96206H24.9563L26.814 6.14459H28.7034L26.6663 3.88355C27.5001 3.81551 28.3657 3.10369 28.3657 1.99934C28.3657 0.706564 27.3418 0.0104511 26.2018 0.0104511L22.7609 0.00521851ZM24.3072 1.3765H26.0752C26.4974 1.3765 26.8088 1.70624 26.8088 2.02027C26.8088 2.42852 26.4077 2.66404 26.0963 2.66404H24.3072V1.3765Z"
      fill="#016FD0" />
    <path d="M30.5769 6.13938H28.9989V0H30.5769V6.13938Z" fill="#016FD0" />
    <path
      d="M34.3239 6.13936H33.9809C32.329 6.13936 31.3315 4.85182 31.3315 3.09846C31.3315 1.30323 32.3237 0.00521851 34.4031 0.00521851H36.113V1.46024H34.345C33.5006 1.46024 32.899 2.11448 32.899 3.11416C32.899 4.30226 33.5851 4.79948 34.5667 4.79948H34.9731L34.3239 6.13936Z"
      fill="#016FD0" />
    <path
      d="M37.691 0.00523583L35.0311 6.13938H36.7622L37.253 4.90941H40.1081L40.5989 6.13938H42.3669L39.707 0L37.691 0.00523583ZM38.6726 1.42886L39.5434 3.57476H37.8018L38.6726 1.42886Z"
      fill="#016FD0" />
    <path d="M42.5464 6.13938V0H44.5149L47.0271 3.85739V0H48.5734V6.13938H46.6682L44.0927 2.18254V6.13938H42.5464Z"
      fill="#016FD0" />
    <path
      d="M8.02173 13.9775V7.83783H13.0726V9.20917H9.58924V10.2612H12.9934V11.5541H9.58924V12.6428H13.0726V13.9775H8.02173Z"
      fill="#016FD0" />
    <path
      d="M32.7588 13.9775V7.83783H37.8097V9.20917H34.3263V10.2612H37.7147V11.5541H34.3263V12.6428H37.8097V13.9775H32.7588Z"
      fill="#016FD0" />
    <path
      d="M13.2679 13.9775L15.7274 10.9469L13.2098 7.83783H15.1573L16.6562 9.75876L18.1604 7.83783H20.034L17.5482 10.905L20.0129 13.9722H18.0654L16.6087 12.0827L15.189 13.9722L13.2679 13.9775Z"
      fill="#016FD0" />
    <path
      d="M20.1976 7.84305V13.9827H21.7863V12.0461H23.4171C24.7946 12.0461 25.8396 11.3185 25.8396 9.91053C25.8396 8.74332 25.0216 7.84828 23.6177 7.84828H20.1976V7.84305ZM21.7863 9.2301H23.5016C23.9449 9.2301 24.2668 9.50227 24.2668 9.9367C24.2668 10.345 23.9502 10.6433 23.4963 10.6433H21.7863V9.2301Z"
      fill="#016FD0" />
    <path
      d="M26.5046 7.83783V13.9775H28.051V11.7948H28.7002L30.558 13.9775H32.4474L30.4102 11.7163C31.2441 11.6483 32.1096 10.9364 32.1096 9.83204C32.1096 8.5392 31.0858 7.84306 29.9458 7.84306L26.5046 7.83783ZM28.0563 9.21441H29.8244C30.2466 9.21441 30.558 9.54416 30.558 9.85821C30.558 10.2665 30.1569 10.502 29.8455 10.502H28.0563V9.21441Z"
      fill="#016FD0" />
    <path
      d="M38.5274 13.9775V12.6428H41.6255C42.0847 12.6428 42.28 12.3968 42.28 12.1298C42.28 11.8733 42.0847 11.6116 41.6255 11.6116H40.2269C39.013 11.6116 38.3322 10.8789 38.3322 9.77445C38.3322 8.79043 38.9549 7.84305 40.7599 7.84305H43.7736L43.1244 9.22486H40.5172C40.0211 9.22486 39.868 9.48657 39.868 9.73257C39.868 9.98905 40.058 10.2665 40.438 10.2665H41.9052C43.2616 10.2665 43.8475 11.0306 43.8475 12.0304C43.8475 13.1034 43.193 13.9827 41.8313 13.9827H38.5274V13.9775Z"
      fill="#016FD0" />
    <path
      d="M44.2064 13.9775V12.6428H47.3044C47.7636 12.6428 47.9589 12.3968 47.9589 12.1298C47.9589 11.8733 47.7636 11.6116 47.3044 11.6116H45.9058C44.6919 11.6116 44.0111 10.8789 44.0111 9.77445C44.0111 8.79043 44.6339 7.84305 46.4389 7.84305H49.4525L48.8033 9.22486H46.1961C45.7 9.22486 45.5469 9.48657 45.5469 9.73257C45.5469 9.98905 45.7369 10.2665 46.1169 10.2665H47.5842C48.9406 10.2665 49.5264 11.0306 49.5264 12.0304C49.5264 13.1034 48.8719 13.9827 47.5103 13.9827H44.2064V13.9775Z"
      fill="#016FD0" />
  </g>
  <defs>
    <clipPath id="clip0_1177_7481">
      <rect width="49" height="14" fill="white" transform="translate(0.5)" />
    </clipPath>
  </defs>
</svg>