<svg width="42" height="29" viewBox="0 0 42 29" fill="none" xmlns="http://www.w3.org/2000/svg">
  <path
    d="M1.65097 18.8103C1.65097 18.0426 1.25102 18.0932 0.864868 18.0886V17.8679C1.20045 17.8679 1.54064 17.8679 1.87162 17.8679C2.20261 17.8679 2.71749 17.8679 3.34728 17.8679C5.55387 17.8679 6.75371 19.339 6.75371 20.8468C6.75371 21.6927 6.26182 23.8119 3.24615 23.8119C2.80943 23.8119 2.40948 23.8119 2.00954 23.8119C1.60959 23.8119 1.25102 23.8119 0.864868 23.8119V23.5913C1.37974 23.5407 1.65097 23.5131 1.65097 22.9431V18.8103ZM2.48763 22.8098C2.48763 23.4671 2.94734 23.5407 3.37027 23.5407C5.20909 23.5407 5.81591 22.1616 5.81591 20.8836C5.81591 19.2884 4.79536 18.1254 3.14961 18.1254C2.80023 18.1254 2.63933 18.1254 2.48763 18.1575V22.8098Z"
    fill="#231F20" />
  <path
    d="M7.05725 23.5905H7.22275C7.4572 23.5905 7.62729 23.5905 7.62729 23.3101V21.0115C7.62729 20.6346 7.50317 20.584 7.16758 20.4139V20.276C7.47929 20.1897 7.78619 20.0869 8.08699 19.968C8.13465 19.9409 8.1885 19.9267 8.24329 19.9266C8.28467 19.9266 8.30306 19.9772 8.30306 20.0461V23.3193C8.30306 23.5997 8.49154 23.5997 8.72599 23.5997H8.87309V23.8249C8.58348 23.8249 8.28467 23.8249 7.97666 23.8249C7.66866 23.8249 7.36525 23.8249 7.05725 23.8249V23.5905ZM7.97666 18.6073C7.86572 18.6073 7.75931 18.5632 7.68086 18.4847C7.60241 18.4063 7.55833 18.2999 7.55833 18.1889C7.55833 18.078 7.60241 17.9716 7.68086 17.8931C7.75931 17.8147 7.86572 17.7706 7.97666 17.7706C8.08604 17.7706 8.19107 17.8134 8.26927 17.8899C8.34746 17.9663 8.39259 18.0704 8.395 18.1797C8.39502 18.2916 8.35124 18.3989 8.27304 18.4788C8.19485 18.5588 8.08845 18.6049 7.97666 18.6073"
    fill="#231F20" />
  <path
    d="M9.69117 21.0528C9.69117 20.7356 9.59922 20.6529 9.19928 20.492V20.3265C9.57986 20.2092 9.95424 20.0726 10.321 19.9173C10.3485 19.9173 10.3715 19.9173 10.3715 20.0047V20.5563C10.7797 20.1867 11.2984 19.9621 11.8472 19.9173C12.5735 19.9173 12.8264 20.446 12.8264 21.1126V23.31C12.8264 23.5904 13.0148 23.5904 13.2539 23.5904H13.4056V23.811C13.1068 23.811 12.8126 23.811 12.4862 23.811C12.1598 23.811 11.8702 23.811 11.5668 23.811V23.5904H11.7185C11.9575 23.5904 12.1276 23.5904 12.1276 23.31V21.1034C12.1276 20.6161 11.8288 20.377 11.3415 20.377C10.9849 20.4353 10.6466 20.5753 10.3531 20.7862V23.31C10.3531 23.5904 10.5416 23.5904 10.7807 23.5904H10.937V23.811C10.6382 23.811 10.3394 23.811 10.0176 23.811C9.69576 23.811 9.40155 23.811 9.09814 23.811V23.5904H9.24985C9.48889 23.5904 9.65899 23.5904 9.65899 23.31L9.69117 21.0528Z"
    fill="#231F20" />
  <path
    d="M14.0629 21.4628C14.0475 21.6264 14.0475 21.7911 14.0629 21.9547C14.1135 22.7683 14.6376 23.4303 15.3179 23.4303C15.538 23.4176 15.7533 23.3606 15.9507 23.2626C16.1482 23.1647 16.3239 23.0278 16.4672 22.8603L16.5867 22.9798C16.4181 23.2589 16.1838 23.4923 15.9041 23.6598C15.6244 23.8273 15.3079 23.9237 14.9823 23.9406C13.6262 23.9406 13.355 22.6304 13.355 22.1018C13.355 20.433 14.4813 19.9366 15.0743 19.9366C15.2573 19.9279 15.4402 19.9559 15.6123 20.0187C15.7844 20.0816 15.9423 20.1781 16.0767 20.3026C16.211 20.4272 16.3193 20.5772 16.395 20.7441C16.4707 20.9109 16.5125 21.0912 16.5178 21.2743C16.5225 21.3263 16.5225 21.3786 16.5178 21.4306L16.4396 21.4812L14.0629 21.4628ZM15.5754 21.187C15.7868 21.187 15.8098 21.0766 15.8098 20.9755C15.819 20.8741 15.8065 20.7719 15.7732 20.6757C15.7398 20.5795 15.6863 20.4915 15.6163 20.4175C15.5463 20.3436 15.4613 20.2854 15.3671 20.2469C15.2728 20.2083 15.1714 20.1903 15.0697 20.194C14.5502 20.194 14.1916 20.5755 14.0905 21.187H15.5754Z"
    fill="#231F20" />
  <path
    d="M16.7294 23.591H16.9638C17.1983 23.591 17.3684 23.591 17.3684 23.3105V20.9155C17.3684 20.6534 17.0557 20.6029 16.9086 20.5339V20.4052C17.5292 20.1386 17.874 19.9179 17.9476 19.9179C18.0211 19.9179 18.0257 19.9455 18.0257 20.0282V20.7959C18.2372 20.465 18.5958 19.9179 19.1152 19.9179C19.1775 19.9148 19.2398 19.9244 19.2982 19.9461C19.3567 19.9678 19.4101 20.0011 19.4553 20.0441C19.5004 20.0871 19.5363 20.1389 19.5609 20.1962C19.5854 20.2535 19.598 20.3153 19.5979 20.3776C19.605 20.4347 19.6 20.4926 19.5833 20.5476C19.5665 20.6026 19.5383 20.6534 19.5006 20.6968C19.4629 20.7401 19.4164 20.7751 19.3643 20.7993C19.3121 20.8235 19.2555 20.8365 19.198 20.8373C18.9359 20.8373 18.936 20.635 18.6371 20.635C18.4657 20.6583 18.3085 20.7428 18.1944 20.8729C18.0804 21.003 18.0172 21.17 18.0165 21.343V23.3427C18.0165 23.6231 18.1866 23.6231 18.4257 23.6231H18.8854V23.8484C18.4257 23.8484 18.0579 23.8484 17.6901 23.8484C17.3224 23.8484 16.9822 23.8484 16.6742 23.8484L16.7294 23.591Z"
    fill="#231F20" />
  <path
    d="M20.0116 22.6299C20.0318 22.9051 20.1526 23.1632 20.3511 23.3548C20.5495 23.5465 20.8116 23.6583 21.0873 23.6689C21.1746 23.6817 21.2636 23.6752 21.3481 23.6499C21.4326 23.6245 21.5104 23.5809 21.5762 23.5222C21.642 23.4634 21.6941 23.3909 21.7287 23.3098C21.7634 23.2287 21.7798 23.141 21.7769 23.0529C21.7769 22.0507 19.9381 22.3725 19.9381 21.0026C19.9381 20.5429 20.3196 19.9085 21.2574 19.9085C21.5953 19.9171 21.9269 20.002 22.2274 20.1567L22.2872 21.0256H22.0941C22.09 20.9094 22.0628 20.7953 22.0142 20.6897C21.9657 20.5841 21.8966 20.4892 21.8111 20.4106C21.7256 20.3319 21.6253 20.271 21.516 20.2313C21.4068 20.1917 21.2907 20.1742 21.1747 20.1797C21.0919 20.1695 21.0079 20.1765 20.928 20.2004C20.8481 20.2243 20.7741 20.2646 20.7106 20.3186C20.647 20.3726 20.5954 20.4392 20.559 20.5142C20.5225 20.5892 20.5021 20.671 20.4989 20.7543C20.4989 21.7519 22.4756 21.4439 22.4756 22.7816C22.4756 23.3425 22.0159 23.9401 21.0092 23.9401C20.6445 23.9293 20.2879 23.8299 19.9702 23.6505L19.8783 22.6713L20.0116 22.6299Z"
    fill="#231F20" />
  <path
    d="M30.1526 19.4072H29.9412C29.7803 18.4096 29.0723 18.028 28.1023 18.028C27.1324 18.028 25.6981 18.6854 25.6981 20.7265C25.6981 22.4504 26.9301 23.687 28.2402 23.687C28.6546 23.6861 29.055 23.5368 29.3687 23.2661C29.6825 22.9953 29.8888 22.6212 29.9504 22.2114L30.148 22.2619L29.9641 23.5123C29.3739 23.7929 28.7324 23.9494 28.0793 23.972C26.0888 23.972 24.8292 22.6849 24.8292 20.7541C24.8292 19.0072 26.3876 17.7568 28.0472 17.7568C28.7394 17.796 29.4201 17.9514 30.0607 18.2165L30.1526 19.4072Z"
    fill="#231F20" />
  <path
    d="M30.4609 23.5913H30.6126C30.8516 23.5913 31.0217 23.5913 31.0217 23.3109V18.5667C31.0217 18.0104 30.893 17.992 30.562 17.9001V17.7622C30.8645 17.6662 31.1582 17.5447 31.4401 17.399C31.4976 17.3574 31.5612 17.3248 31.6285 17.3025C31.6791 17.3025 31.6929 17.3531 31.6929 17.422V23.3109C31.6929 23.5913 31.8814 23.5913 32.1204 23.5913H32.2675V23.8165C31.9779 23.8165 31.6791 23.8165 31.3481 23.8165C31.0171 23.8165 30.7367 23.8165 30.4287 23.8165L30.4609 23.5913Z"
    fill="#231F20" />
  <path
    d="M35.9313 23.3428C35.9313 23.4991 36.0232 23.5083 36.1703 23.5083H36.5105V23.6876C36.0955 23.7445 35.6852 23.8321 35.2831 23.9497H35.2417V23.2601C34.846 23.678 34.308 23.9323 33.7339 23.9726C33.605 23.9733 33.4774 23.9468 33.3594 23.895C33.2414 23.8431 33.1357 23.7671 33.049 23.6717C32.9623 23.5763 32.8966 23.4638 32.8562 23.3414C32.8158 23.219 32.8016 23.0895 32.8145 22.9613V20.7547C32.8145 20.534 32.7777 20.318 32.3042 20.295V20.1341C32.6122 20.1341 33.2926 20.0743 33.4029 20.0743C33.5132 20.0743 33.4948 20.1341 33.4948 20.3226V22.52C33.4948 22.7774 33.4948 23.5083 34.2396 23.5083C34.6281 23.4453 34.9877 23.2639 35.2693 22.9889V20.6903C35.2693 20.5202 34.8602 20.4283 34.5522 20.341V20.1893C35.3199 20.1387 35.798 20.0697 35.8807 20.0697C35.9635 20.0697 35.9497 20.1295 35.9497 20.226L35.9313 23.3428Z"
    fill="#231F20" />
  <path
    d="M37.6276 20.5342C37.9669 20.194 38.4103 19.9771 38.8872 19.9182C39.1103 19.928 39.3292 19.9826 39.5308 20.0788C39.7324 20.175 39.9126 20.3108 40.0606 20.4781C40.2086 20.6454 40.3214 20.8408 40.3923 21.0526C40.4631 21.2645 40.4907 21.4884 40.4732 21.7111C40.4944 22.2772 40.2915 22.8288 39.9085 23.2463C39.5255 23.6637 38.9933 23.9132 38.4275 23.9406C38.0142 23.9394 37.6074 23.8384 37.2414 23.6464L36.9886 23.8395L36.8093 23.7476C36.8862 23.2455 36.9261 22.7385 36.9288 22.2305V18.5529C36.9288 17.9966 36.8001 17.9783 36.4691 17.8863V17.7484C36.7728 17.654 37.0668 17.5309 37.3472 17.3806C37.4066 17.3435 37.4698 17.3127 37.5356 17.2887C37.5862 17.2887 37.6046 17.3393 37.6046 17.4082L37.6276 20.5342ZM37.6276 22.8328C37.6399 23.0608 37.7367 23.276 37.899 23.4366C38.0613 23.5972 38.2775 23.6917 38.5056 23.7016C39.425 23.7016 39.802 22.7822 39.802 22.0467C39.802 21.1272 39.1032 20.3595 38.4229 20.3595C38.1136 20.3937 37.8267 20.5371 37.6138 20.7641L37.6276 22.8328Z"
    fill="#231F20" />
  <path
    d="M0.860229 28.7676H0.924588C1.09468 28.7676 1.26937 28.7446 1.26937 28.5055V26.0737C1.26937 25.8347 1.09468 25.8117 0.924588 25.8117H0.860229V25.6692C1.04411 25.6692 1.31994 25.6692 1.54979 25.6692C1.77964 25.6692 2.06006 25.6692 2.27613 25.6692V25.8117H2.21177C2.04627 25.8117 1.86699 25.8117 1.86699 26.0737V28.5055C1.86699 28.7446 2.04627 28.7676 2.21177 28.7676H2.27613V28.9101C2.05547 28.9101 1.77505 28.9101 1.54519 28.9101C1.31534 28.9101 1.04411 28.9101 0.860229 28.9101V28.7676Z"
    fill="#231F20" />
  <path
    d="M2.27613 28.9282C2.05087 28.9282 1.77505 28.9282 1.54519 28.9282C1.31534 28.9282 1.04411 28.9282 0.860229 28.9282V28.7489H0.947573C1.11307 28.7489 1.26477 28.7489 1.26937 28.5053V26.0734C1.26937 25.8482 1.11307 25.8344 0.947573 25.8298H0.860229V25.6505C1.04411 25.6505 1.31994 25.6505 1.54979 25.6505C1.77964 25.6505 2.05547 25.6505 2.27613 25.6505V25.8114H2.19338C2.02329 25.8114 1.87158 25.8114 1.87158 26.055V28.4869C1.87158 28.7121 2.02329 28.7259 2.19338 28.7305H2.27613V28.9098V28.9282ZM2.27613 28.8868V28.7903H2.23015C2.06466 28.7903 1.86699 28.7627 1.86699 28.5053V26.0734C1.86699 25.8206 2.06466 25.7884 2.23015 25.7884H2.27613V25.6919C2.06006 25.6919 1.79343 25.6919 1.56818 25.6919C1.34292 25.6919 1.08089 25.6919 0.901603 25.6919V25.8114H0.947573C1.10847 25.8114 1.30614 25.8436 1.30614 26.0964V28.5282C1.30614 28.7857 1.10847 28.8133 0.947573 28.8133H0.901603V28.9098C1.08089 28.9098 1.36131 28.9098 1.56358 28.9098C1.76585 28.9098 2.05547 28.9098 2.27613 28.9098"
    fill="#231F20" />
  <path
    d="M5.46188 27.9953V26.2714C5.47427 26.2132 5.47288 26.1529 5.45781 26.0953C5.44275 26.0378 5.41443 25.9845 5.37513 25.9399C5.33582 25.8952 5.28661 25.8603 5.23144 25.8381C5.17626 25.8158 5.11664 25.8068 5.05734 25.8117H4.95621V25.6692C5.17227 25.6692 5.38833 25.6692 5.60439 25.6692C5.82045 25.6692 5.98595 25.6692 6.17443 25.6692V25.8117H6.10547C5.91239 25.8117 5.69174 25.8484 5.69174 26.4001V28.5101C5.68951 28.6639 5.69873 28.8175 5.71932 28.9699H5.54463L3.16795 26.3173V28.2251C3.16795 28.6297 3.2461 28.7676 3.60007 28.7676H3.67822V28.9101C3.48055 28.9101 3.28287 28.9101 3.0806 28.9101C2.87833 28.9101 2.66227 28.9101 2.45081 28.9101V28.7676H2.51516C2.83696 28.7676 2.9335 28.5515 2.9335 28.1792V26.23C2.93413 26.1745 2.92358 26.1194 2.9025 26.0681C2.88141 26.0168 2.8502 25.9702 2.81074 25.9311C2.77128 25.8921 2.72437 25.8614 2.6728 25.8409C2.62123 25.8204 2.56606 25.8104 2.51057 25.8117H2.45081V25.6692C2.62549 25.6692 2.80938 25.6692 2.98407 25.6692C3.15875 25.6692 3.25989 25.6692 3.3978 25.6692L5.46188 27.9953Z"
    fill="#231F20" />
  <path
    d="M5.72859 28.9971H5.54011L3.18641 26.3722V28.211C3.18641 28.6156 3.25537 28.7305 3.60015 28.7351H3.70128V28.9144H3.6783C3.48063 28.9144 3.27835 28.9144 3.08068 28.9144C2.88301 28.9144 2.66235 28.9144 2.45088 28.9144V28.7351H2.53363C2.84163 28.7351 2.92898 28.5374 2.93358 28.1651V26.2297C2.93358 26.1768 2.92308 26.1244 2.9027 26.0756C2.88231 26.0268 2.85244 25.9825 2.81481 25.9453C2.77719 25.9081 2.73255 25.8787 2.6835 25.8589C2.63444 25.8391 2.58194 25.8292 2.52903 25.8298H2.4325V25.6505C2.61178 25.6505 2.79107 25.6505 2.96575 25.6505C3.14044 25.6505 3.23698 25.6505 3.39328 25.6505L5.43438 27.949V26.2711C5.43438 25.8987 5.18614 25.8573 5.04822 25.8528H4.9241V25.6735H4.94709C5.16775 25.6735 5.37921 25.6735 5.59528 25.6735C5.81134 25.6735 5.97683 25.6735 6.16531 25.6735V25.8114H6.07337C5.88489 25.8114 5.68722 25.8114 5.68262 26.3814V28.4915C5.68003 28.6452 5.68925 28.7989 5.7102 28.9512V28.9742L5.72859 28.9971ZM5.5539 28.9558H5.7102C5.6884 28.8036 5.67917 28.6498 5.68262 28.4961V26.3998C5.68262 25.8436 5.91707 25.7884 6.11474 25.7884H6.16531V25.6919C5.98143 25.6919 5.79755 25.6919 5.61366 25.6919C5.42978 25.6919 5.19533 25.6919 4.98387 25.6919V25.8114H5.06661C5.12624 25.8081 5.18585 25.818 5.24117 25.8405C5.29649 25.863 5.34615 25.8975 5.38658 25.9414C5.42701 25.9854 5.45721 26.0377 5.47501 26.0947C5.49281 26.1517 5.49778 26.2119 5.48954 26.2711V28.0226L3.39788 25.6919C3.25997 25.6919 3.12665 25.6919 2.98414 25.6919C2.84163 25.6919 2.63936 25.6919 2.47387 25.6919V25.8114H2.51065C2.63257 25.8114 2.74949 25.8598 2.83571 25.946C2.92192 26.0322 2.97035 26.1492 2.97035 26.2711V28.2202C2.97035 28.5926 2.86462 28.8317 2.51065 28.8317H2.46927V28.9282C2.66695 28.9282 2.87381 28.9282 3.07608 28.9282C3.27835 28.9282 3.46224 28.9282 3.65531 28.9282V28.8317H3.59555C3.23238 28.8317 3.13585 28.6708 3.13585 28.2662V26.2711L5.5539 28.9558Z"
    fill="#231F20" />
  <path
    d="M6.87765 25.9035C6.53287 25.9035 6.51908 25.9863 6.45013 26.3265H6.30762C6.30762 26.1978 6.34899 26.0644 6.36738 25.9311C6.38358 25.7999 6.39279 25.668 6.39496 25.5358H6.50529C6.54207 25.6783 6.65699 25.6691 6.78111 25.6691H9.17618C9.30031 25.6691 9.41523 25.6691 9.42443 25.5266H9.53476C9.53476 25.6507 9.50258 25.7794 9.48419 25.9035C9.4658 26.0277 9.48419 26.1564 9.48419 26.2805L9.34628 26.3311C9.34628 26.161 9.3141 25.8714 9.00609 25.8714H8.23379V28.34C8.23379 28.694 8.39468 28.7353 8.61994 28.7353H8.70728V28.8778C8.528 28.8778 8.20161 28.8778 7.95337 28.8778C7.70512 28.8778 7.34655 28.8778 7.16727 28.8778V28.7353H7.25461C7.51205 28.7353 7.64076 28.7123 7.64076 28.3492V25.9035H6.87765Z"
    fill="#231F20" />
  <path
    d="M8.70737 28.9284C8.52348 28.9284 8.20169 28.9284 7.94885 28.9284C7.69601 28.9284 7.35123 28.9284 7.16735 28.9284V28.7491H7.27308C7.53052 28.7491 7.63165 28.7491 7.63625 28.3813V25.9219H6.87773V25.8851H7.65923V28.3813C7.65923 28.7537 7.51213 28.7905 7.25469 28.7905H7.16735V28.887C7.35123 28.887 7.66383 28.887 7.93046 28.887C8.19709 28.887 8.48671 28.887 8.66599 28.887V28.7905H8.60163C8.37638 28.7905 8.19709 28.7353 8.19709 28.3721V25.8851H9.00618C9.31878 25.8851 9.36015 26.1472 9.36934 26.3448L9.46588 26.2713C9.46588 26.1472 9.46588 26.0276 9.46588 25.9035C9.46588 25.7794 9.49806 25.6691 9.51185 25.5495H9.4429C9.41991 25.6874 9.29119 25.692 9.17627 25.692H6.75821C6.64788 25.692 6.53295 25.692 6.49158 25.5587H6.41343C6.41357 25.6849 6.40435 25.8109 6.38585 25.9357C6.38585 26.0598 6.34907 26.1839 6.33528 26.3035H6.43182C6.49618 25.9817 6.53296 25.8759 6.89153 25.8851V25.9219C6.55134 25.9219 6.55594 25.9863 6.48239 26.331H6.3031C6.3031 26.2023 6.34448 26.0736 6.35827 25.9357C6.37671 25.8063 6.38593 25.6757 6.38585 25.5449V25.5449H6.53295C6.56513 25.6645 6.64788 25.6645 6.76741 25.6645H9.18546C9.31418 25.6645 9.40612 25.6645 9.41531 25.5403H9.4383H9.56702C9.56702 25.6645 9.53024 25.7886 9.51645 25.9127C9.50266 26.0368 9.51645 26.1655 9.51645 26.2897L9.35095 26.3494V26.3218C9.35095 26.1472 9.31878 25.8943 9.02456 25.8943H8.25226V28.3446C8.25226 28.6939 8.39936 28.7169 8.62002 28.7215H8.72575V28.9008L8.70737 28.9284Z"
    fill="#231F20" />
  <path
    d="M9.68672 28.7676H9.75108C9.91658 28.7676 10.0913 28.7446 10.0913 28.5055V26.0737C10.0913 25.8347 9.91658 25.8117 9.75108 25.8117H9.68672V25.6692C9.96714 25.6692 10.4498 25.6692 10.8406 25.6692C11.2313 25.6692 11.7094 25.6692 12.0266 25.6692C12.0266 25.8714 12.0266 26.1794 12.0266 26.3817L11.8887 26.4185C11.8887 26.1197 11.8106 25.876 11.3233 25.876H10.6797V27.0897H11.2313C11.5072 27.0897 11.5669 26.9334 11.5945 26.6851H11.7646C11.7646 26.8644 11.7646 27.0437 11.7646 27.223C11.7646 27.4023 11.7646 27.5769 11.7646 27.7516L11.6267 27.7838C11.5991 27.5034 11.5853 27.3241 11.2681 27.3241H10.6889V28.4044C10.6889 28.7032 10.9555 28.7032 11.2543 28.7032C11.8106 28.7032 12.0542 28.6664 12.1737 28.1378L12.3071 28.17C12.2427 28.4182 12.1875 28.6618 12.1462 28.9101C11.8519 28.9101 11.3187 28.9101 10.9003 28.9101C10.482 28.9101 9.93037 28.9101 9.66833 28.9101L9.68672 28.7676Z"
    fill="#231F20" />
  <path
    d="M12.1645 28.9282C11.8703 28.9282 11.337 28.9282 10.9187 28.9282C10.5003 28.9282 9.94868 28.9282 9.68665 28.9282V28.7489H9.77399C9.93948 28.7489 10.0958 28.7489 10.0958 28.5053V26.0734C10.0958 25.8482 9.93948 25.8344 9.77399 25.8298H9.68665V25.6505C9.96707 25.6505 10.4498 25.6505 10.8405 25.6505C11.2313 25.6505 11.7094 25.6505 12.0266 25.6505C12.0266 25.7194 12.0266 25.8022 12.0266 25.8895C12.0266 26.0504 12.0266 26.2251 12.0266 26.3492L11.8657 26.3906V26.3676C11.8381 26.0688 11.8013 25.8482 11.3232 25.8436H10.7072V27.0204H11.2359C11.5071 27.0204 11.5531 26.8779 11.5852 26.6297H11.7645V26.6526C11.7645 26.8319 11.7645 27.0112 11.7645 27.1951C11.7645 27.379 11.7645 27.5445 11.7645 27.7192L11.6036 27.7513C11.5714 27.4663 11.5714 27.2916 11.2634 27.2916H10.7072V28.3536C10.7072 28.634 10.9508 28.634 11.2542 28.634C11.8105 28.634 12.0357 28.6018 12.1737 28.0823L12.3254 28.1191C12.2656 28.3673 12.2104 28.611 12.1691 28.8546L12.1645 28.9282ZM12.1645 28.8868C12.2012 28.6524 12.2564 28.4271 12.3116 28.1881H12.2196C12.0817 28.7029 11.8151 28.7489 11.268 28.7489C10.9738 28.7489 10.6796 28.7489 10.6796 28.4271V27.3238H11.2588C11.5806 27.3238 11.6128 27.5169 11.6358 27.7835H11.7369C11.7369 27.6134 11.7369 27.4387 11.7369 27.2732C11.7369 27.1078 11.7369 26.9239 11.7369 26.7492H11.6358C11.6082 26.9882 11.5347 27.1583 11.2496 27.1583H10.6658V25.8528H11.3324C11.7921 25.8528 11.8932 26.101 11.9162 26.3906L12.0128 26.363C12.0128 26.2343 12.0128 26.0688 12.0128 25.9033V25.6827C11.7002 25.6827 11.2313 25.6827 10.8497 25.6827C10.4681 25.6827 9.99925 25.6827 9.71423 25.6827V25.8114H9.7602C9.92569 25.8114 10.1234 25.8436 10.1234 26.0964V28.5282C10.1234 28.7811 9.92569 28.8087 9.7602 28.8133H9.71423V28.9098C9.98546 28.9098 10.5187 28.9098 10.9279 28.9098C11.337 28.9098 11.8473 28.9098 12.1599 28.9098"
    fill="#231F20" />
  <path
    d="M12.9505 26.161C12.9505 25.8255 12.762 25.8117 12.6195 25.8117H12.5367V25.6692C12.6838 25.6692 12.9965 25.6692 13.2539 25.6692C13.5113 25.6692 13.755 25.6692 14.0032 25.6692C14.587 25.6692 15.1065 25.8301 15.1065 26.4874C15.0998 26.6744 15.0339 26.8545 14.9182 27.0016C14.8025 27.1486 14.6431 27.2552 14.4629 27.3057L15.2536 28.4918C15.2967 28.5762 15.3626 28.6468 15.4439 28.6956C15.5252 28.7444 15.6185 28.7693 15.7133 28.7676V28.9101C15.5616 28.9101 15.4099 28.9101 15.2536 28.9101C15.0973 28.9101 14.9594 28.9101 14.8169 28.9101C14.4629 28.4304 14.1405 27.9283 13.8515 27.4068H13.5481V28.3998C13.5481 28.7538 13.7136 28.7676 13.9251 28.7676H14.0124V28.9101C13.7458 28.9101 13.4791 28.9101 13.2125 28.9101C12.9459 28.9101 12.7528 28.9101 12.5413 28.9101V28.7676H12.6241C12.7942 28.7676 12.9551 28.6894 12.9551 28.5193L12.9505 26.161ZM13.5435 27.2368H13.7688C14.2285 27.2368 14.4859 27.0621 14.4859 26.515C14.4921 26.4243 14.4787 26.3333 14.4466 26.2482C14.4146 26.1631 14.3646 26.0859 14.3 26.0218C14.2355 25.9577 14.158 25.9082 14.0726 25.8767C13.9873 25.8452 13.8962 25.8324 13.8055 25.8392C13.7183 25.8342 13.6308 25.8342 13.5435 25.8392V27.2368Z"
    fill="#231F20" />
  <path
    d="M15.7041 28.9282C15.5478 28.9282 15.4007 28.9282 15.2444 28.9282C15.0881 28.9282 14.9548 28.9282 14.7847 28.9282C14.4291 28.4538 14.108 27.9545 13.8239 27.4341H13.5481V28.4087C13.5481 28.7581 13.6952 28.7535 13.9067 28.7581H14.0124V28.9374H13.9894C13.7274 28.9374 13.4562 28.9374 13.1941 28.9374C12.9321 28.9374 12.7344 28.9374 12.5229 28.9374V28.7581H12.6241C12.7896 28.7581 12.9321 28.6845 12.9321 28.5282V26.1608C12.9321 25.8344 12.7666 25.8344 12.6241 25.8298H12.5229V25.6505C12.6747 25.6505 12.9827 25.6505 13.2401 25.6505C13.4975 25.6505 13.7412 25.6505 13.9894 25.6505C14.5732 25.6505 15.1111 25.816 15.1111 26.4871C15.1055 26.6742 15.0413 26.8547 14.9274 27.0033C14.8136 27.1518 14.6559 27.2607 14.4767 27.3146L15.2582 28.4777C15.2981 28.5584 15.3597 28.6265 15.4359 28.6744C15.5122 28.7222 15.6003 28.748 15.6903 28.7489V28.7489V28.9282H15.7041ZM13.5435 27.3836H13.8607C14.1463 27.8985 14.4626 28.3959 14.8077 28.873C14.9502 28.873 15.0973 28.873 15.2444 28.873C15.3915 28.873 15.534 28.873 15.6765 28.873V28.7719C15.5815 28.7697 15.4887 28.7421 15.4079 28.692C15.327 28.6419 15.2611 28.5711 15.2168 28.4869L14.4307 27.2962H14.4537C14.6306 27.248 14.7872 27.1443 14.9006 27.0002C15.014 26.8562 15.0781 26.6796 15.0835 26.4963C15.0835 25.8528 14.5824 25.7011 14.0032 25.7011C13.7596 25.7011 13.5435 25.7011 13.2539 25.7011C12.9643 25.7011 12.7068 25.7011 12.5551 25.7011V25.8114H12.6195C12.762 25.8114 12.9689 25.8344 12.9689 26.1791V28.5374C12.9689 28.7213 12.7942 28.8087 12.6195 28.8087H12.5551V28.9052C12.7804 28.9052 13.0148 28.9052 13.2079 28.9052C13.401 28.9052 13.7274 28.9052 13.9848 28.9052V28.8087H13.9205C13.709 28.8087 13.5205 28.7811 13.5205 28.4179V27.3836H13.5435ZM13.5435 27.2595V25.839C13.6079 25.839 13.6722 25.839 13.8101 25.839C13.9027 25.8304 13.9961 25.8417 14.0839 25.8721C14.1718 25.9025 14.2521 25.9513 14.3196 26.0153C14.3871 26.0793 14.4401 26.1569 14.4751 26.2431C14.5101 26.3292 14.5263 26.4218 14.5227 26.5147C14.5227 27.071 14.256 27.2595 13.7871 27.2595H13.5435ZM13.7688 27.2181C14.2285 27.2181 14.4583 27.0572 14.4629 26.5147C14.4698 26.4266 14.4576 26.3381 14.427 26.2552C14.3964 26.1723 14.3482 26.097 14.2857 26.0346C14.2232 25.9721 14.1479 25.9239 14.0651 25.8933C13.9822 25.8627 13.8936 25.8504 13.8055 25.8573C13.7244 25.8525 13.643 25.8525 13.5619 25.8573V27.1997L13.7688 27.2181Z"
    fill="#231F20" />
  <path
    d="M18.8532 27.9953V26.2714C18.8654 26.2136 18.8641 26.1537 18.8493 26.0966C18.8345 26.0394 18.8066 25.9864 18.7678 25.9419C18.729 25.8973 18.6804 25.8623 18.6258 25.8397C18.5713 25.8171 18.5122 25.8075 18.4533 25.8117H18.3521V25.6692C18.5682 25.6692 18.7796 25.6692 19.0003 25.6692C19.221 25.6692 19.3819 25.6692 19.5703 25.6692V25.8117H19.5014C19.3083 25.8117 19.0876 25.8484 19.0876 26.4001V28.5101C19.0854 28.6639 19.0946 28.8175 19.1152 28.9699H18.9405L16.5501 26.3082V28.2159C16.5501 28.6205 16.6328 28.7584 16.9868 28.7584H17.0695V28.9009C16.8673 28.9009 16.6696 28.9009 16.4673 28.9009C16.2651 28.9009 16.0444 28.9009 15.8375 28.9009V28.7584H15.9019C16.2237 28.7584 16.3202 28.5423 16.3202 28.17V26.23C16.3202 26.1191 16.2761 26.0126 16.1977 25.9342C16.1192 25.8557 16.0128 25.8117 15.9019 25.8117H15.8421V25.6692C16.0168 25.6692 16.2007 25.6692 16.3754 25.6692C16.5501 25.6692 16.6466 25.6692 16.7891 25.6692L18.8532 27.9953Z"
    fill="#231F20" />
  <path
    d="M19.1198 28.9969H18.9313L16.5776 26.3719V28.2108C16.5776 28.6153 16.642 28.7302 16.9913 28.7348H17.0925V28.9141H17.0695C16.8718 28.9141 16.6695 28.9141 16.4719 28.9141C16.2742 28.9141 16.0489 28.9141 15.8421 28.9141V28.7348H15.9018C16.2052 28.7348 16.2972 28.5372 16.2972 28.1648V26.2294C16.3003 26.1756 16.2924 26.1217 16.274 26.0711C16.2555 26.0204 16.2269 25.9741 16.1898 25.9349C16.1528 25.8957 16.1082 25.8645 16.0586 25.8432C16.0091 25.8219 15.9557 25.811 15.9018 25.8111H15.8191V25.6318C15.9938 25.6318 16.1777 25.6318 16.3524 25.6318C16.527 25.6318 16.6236 25.6318 16.7799 25.6318L18.8164 27.9303V26.2708C18.8164 25.8984 18.5681 25.8571 18.4348 25.8525H18.3107V25.6732H18.3337C18.5497 25.6732 18.7658 25.6732 18.9819 25.6732C19.1979 25.6732 19.3588 25.6732 19.5519 25.6732V25.8111H19.4646C19.2715 25.8111 19.0784 25.8111 19.0692 26.3811V28.4912C19.0666 28.6449 19.0758 28.7986 19.0968 28.9509V28.9739L19.1198 28.9969ZM18.9451 28.9555H19.1198C19.102 28.8029 19.0943 28.6493 19.0968 28.4958V26.3995C19.0968 25.8433 19.3312 25.7927 19.5289 25.7881H19.5795V25.6916C19.3956 25.6916 19.2117 25.6916 19.0278 25.6916C18.844 25.6916 18.6095 25.6916 18.398 25.6916V25.8111H18.4808C18.5402 25.8086 18.5994 25.8191 18.6544 25.8419C18.7093 25.8647 18.7586 25.8991 18.7989 25.9429C18.8391 25.9866 18.8694 26.0386 18.8875 26.0953C18.9056 26.1519 18.9111 26.2118 18.9037 26.2708V28.0223L16.8396 25.6916C16.7017 25.6916 16.5638 25.6916 16.4259 25.6916C16.288 25.6916 16.0811 25.6916 15.911 25.6916V25.8111H15.9018C16.0238 25.8111 16.1407 25.8595 16.2269 25.9457C16.3131 26.0319 16.3615 26.1489 16.3615 26.2708V28.22C16.3615 28.5923 16.2558 28.8314 15.9018 28.8314H15.8559V28.9279C16.0581 28.9279 16.265 28.9279 16.4673 28.9279C16.6695 28.9279 16.8534 28.9279 17.0465 28.9279V28.8314H16.9867C16.6236 28.8314 16.527 28.6705 16.527 28.2659V26.2708L18.9451 28.9555Z"
    fill="#231F20" />
  <path
    d="M20.3242 28.243C20.2758 28.3599 20.2404 28.4817 20.2185 28.6062C20.2185 28.7441 20.4162 28.7671 20.5679 28.7671H20.6184V28.9096C20.43 28.9096 20.2415 28.9096 20.0576 28.9096C19.8737 28.9096 19.722 28.9096 19.5565 28.9096V28.7671H19.5795C19.6696 28.7677 19.7574 28.7388 19.8296 28.6848C19.9018 28.6309 19.9544 28.5549 19.9794 28.4683L20.7242 26.3399C20.795 26.1528 20.8518 25.9607 20.8943 25.7652C21.0426 25.7144 21.1845 25.6465 21.3172 25.563H21.354C21.354 25.563 21.354 25.563 21.3862 25.563L21.4275 25.6825L22.2872 28.1097C22.3423 28.2706 22.3975 28.4453 22.4573 28.5694C22.4818 28.6293 22.5251 28.6796 22.5806 28.7127C22.6361 28.7459 22.7009 28.7601 22.7653 28.7533H22.7974V28.8958C22.5906 28.8958 22.3791 28.8958 22.1585 28.8958C21.9378 28.8958 21.6987 28.8958 21.4643 28.8958V28.7533H21.5149C21.6206 28.7533 21.7999 28.7533 21.7999 28.62C21.7818 28.5051 21.7509 28.3925 21.7079 28.2844L21.5241 27.7466H20.4667L20.3242 28.243ZM21 26.1882L20.5679 27.5029H21.4183L21 26.1882Z"
    fill="#231F20" />
  <path
    d="M22.7975 28.9284C22.5907 28.9284 22.3838 28.9284 22.1631 28.9284C21.9425 28.9284 21.7034 28.9284 21.469 28.9284V28.7491H21.5425C21.6483 28.7491 21.8046 28.7491 21.8046 28.6341C21.7901 28.5219 21.7607 28.4122 21.7172 28.3077L21.5379 27.7837H20.499L20.3519 28.2434C20.3076 28.3581 20.2737 28.4766 20.2508 28.5974C20.2508 28.7123 20.4254 28.7399 20.5818 28.7399H20.6507V28.9192C20.4622 28.9192 20.2737 28.9192 20.0899 28.9192C19.906 28.9192 19.7543 28.9192 19.5888 28.9192V28.7399H19.5796C19.6661 28.74 19.7503 28.7117 19.8192 28.6594C19.8881 28.6071 19.938 28.5336 19.9611 28.4503L20.7059 26.3218C20.7775 26.1306 20.8388 25.9357 20.8898 25.738C21.0361 25.6824 21.1776 25.6148 21.3127 25.5357H21.3541C21.3643 25.5346 21.3746 25.5367 21.3837 25.5416C21.3927 25.5465 21.4 25.5541 21.4046 25.5633L21.446 25.6782L22.3056 28.1101C22.3608 28.271 22.416 28.4411 22.4757 28.5698C22.4971 28.6274 22.5374 28.6761 22.59 28.7078C22.6426 28.7395 22.7044 28.7525 22.7654 28.7445H22.7975V28.9238V28.9284ZM21.4874 28.887C21.7172 28.887 21.9471 28.887 22.1631 28.887C22.3792 28.887 22.5815 28.887 22.7791 28.887V28.7904C22.7108 28.7966 22.6422 28.7808 22.5835 28.7452C22.5248 28.7096 22.479 28.6562 22.4528 28.5928C22.393 28.4503 22.3378 28.2802 22.2827 28.1331L21.4184 25.692C21.4184 25.6552 21.3908 25.6139 21.3816 25.5817H21.3357C21.2059 25.6598 21.0669 25.7216 20.9219 25.7656C20.8814 25.963 20.8245 26.1568 20.7518 26.3448L20.0117 28.4732C19.9824 28.5632 19.9261 28.642 19.8504 28.6987C19.7747 28.7555 19.6834 28.7875 19.5888 28.7904V28.887C19.7497 28.887 19.9106 28.887 20.0715 28.887C20.2324 28.887 20.4346 28.887 20.6093 28.887V28.7904H20.5818C20.43 28.7904 20.2186 28.7904 20.214 28.6066C20.2342 28.4806 20.2681 28.3573 20.3151 28.2388V28.2388L20.4668 27.7423H21.5471L21.7356 28.294C21.7798 28.4032 21.8107 28.5175 21.8276 28.6341C21.8276 28.7766 21.6253 28.7858 21.5241 28.7904H21.492L21.4874 28.887ZM20.5358 27.5079L20.9955 26.1563H21.0231L21.4598 27.5079H20.5358ZM20.5955 27.4711H21.4184L21.0139 26.2253L20.5955 27.4711Z"
    fill="#231F20" />
  <path
    d="M22.9952 25.9035C22.6504 25.9035 22.6366 25.9863 22.5631 26.3265H22.4252C22.4252 26.1978 22.4665 26.0644 22.4803 25.9311C22.4988 25.8002 22.508 25.668 22.5079 25.5358H22.6228C22.6596 25.6783 22.7745 25.6691 22.8987 25.6691H25.2937C25.4179 25.6691 25.5328 25.6691 25.542 25.5266H25.6523C25.6523 25.6507 25.6155 25.7794 25.6017 25.9035C25.5879 26.0277 25.6017 26.1564 25.6017 26.2805L25.4638 26.3311C25.4638 26.161 25.4317 25.8714 25.1191 25.8714H24.3513V28.34C24.3513 28.694 24.5122 28.7353 24.7375 28.7353H24.8248V28.8778C24.641 28.8778 24.3192 28.8778 24.0663 28.8778C23.8135 28.8778 23.4641 28.8778 23.2848 28.8778V28.7353H23.3722C23.6296 28.7353 23.7583 28.7123 23.7583 28.3492V25.9035H22.9952Z"
    fill="#231F20" />
  <path
    d="M24.8248 28.9284C24.6409 28.9284 24.3191 28.9284 24.0663 28.9284C23.8134 28.9284 23.4641 28.9284 23.2848 28.9284V28.7491H23.3951C23.6479 28.7491 23.7537 28.7491 23.7583 28.3813V25.9219H22.9952V25.8851H23.7767V28.3813C23.7767 28.7537 23.625 28.7859 23.3721 28.7905H23.3032V28.887C23.4871 28.887 23.7997 28.887 24.0663 28.887C24.3329 28.887 24.6179 28.887 24.8018 28.887V28.7905H24.7329C24.5122 28.7905 24.3329 28.7353 24.3283 28.3721V25.8851H25.096C25.4086 25.8851 25.45 26.1472 25.4592 26.3448L25.5557 26.2713C25.5557 26.1472 25.5557 26.0276 25.5557 25.9081C25.5557 25.7886 25.5879 25.6691 25.6017 25.5495H25.5327C25.5098 25.6874 25.381 25.692 25.2615 25.692H22.8756C22.7653 25.692 22.6458 25.692 22.6044 25.5541H22.5309C22.5289 25.6817 22.5197 25.8091 22.5033 25.9357C22.5033 26.0598 22.4665 26.1839 22.4481 26.3035H22.5492C22.609 25.9817 22.6504 25.8759 23.009 25.8851V25.9219C22.6642 25.9219 22.6734 25.9863 22.5998 26.331H22.4205C22.4205 26.2023 22.4619 26.0736 22.4757 25.9403C22.494 25.8093 22.5032 25.6772 22.5033 25.5449V25.5449H22.6504C22.6826 25.6645 22.7653 25.6645 22.8848 25.6645H25.2983C25.427 25.6645 25.5235 25.6645 25.5327 25.5403H25.6615C25.6615 25.6645 25.6247 25.7886 25.6109 25.9127C25.5971 26.0368 25.6109 26.1655 25.6109 26.2897L25.45 26.3494V26.3218C25.45 26.1472 25.4178 25.8943 25.1236 25.8943H24.3697V28.3446C24.3697 28.6939 24.5122 28.7169 24.7329 28.7215H24.8432V28.9008L24.8248 28.9284Z"
    fill="#231F20" />
  <path
    d="M25.8224 28.7676H25.8867C26.0568 28.7676 26.2315 28.7446 26.2315 28.5055V26.0737C26.2315 25.8347 26.0568 25.8117 25.8867 25.8117H25.8224V25.6692C26.0063 25.6692 26.2821 25.6692 26.5073 25.6692C26.7326 25.6692 27.0176 25.6692 27.2383 25.6692V25.8117H27.1739C27.0038 25.8117 26.8291 25.8117 26.8291 26.0737V28.5055C26.8291 28.7446 27.0038 28.7676 27.1739 28.7676H27.2383V28.9101C27.0176 28.9101 26.7372 28.9101 26.5073 28.9101C26.2775 28.9101 26.0063 28.9101 25.8224 28.9101V28.7676Z"
    fill="#231F20" />
  <path
    d="M27.2383 28.9282C27.013 28.9282 26.7372 28.9282 26.5073 28.9282C26.2775 28.9282 26.0063 28.9282 25.8224 28.9282V28.7489H25.9051C26.0752 28.7489 26.2269 28.7489 26.2269 28.5053V26.0734C26.2269 25.8482 26.0752 25.8344 25.9051 25.8298H25.8224V25.6505C26.0063 25.6505 26.2821 25.6505 26.5073 25.6505C26.7326 25.6505 27.0176 25.6505 27.2383 25.6505V25.8114H27.1555C26.9854 25.8114 26.8337 25.8114 26.8337 26.055V28.4869C26.8337 28.7121 26.9854 28.7259 27.1555 28.7305H27.2383V28.9098V28.9282ZM27.2383 28.8868V28.7903H27.1969C27.0314 28.7903 26.8337 28.7581 26.8337 28.5053V26.0734C26.8337 25.8206 27.0314 25.7884 27.1969 25.7884H27.2383V25.6919C27.0268 25.6919 26.7786 25.6919 26.5303 25.6919C26.2821 25.6919 26.0706 25.6919 25.8684 25.6919V25.8114H25.9097C26.0752 25.8114 26.2729 25.8436 26.2729 26.0964V28.5282C26.2729 28.7811 26.0752 28.8133 25.9097 28.8133H25.8684V28.9098C26.0476 28.9098 26.3281 28.9098 26.5303 28.9098C26.7326 28.9098 27.0222 28.9098 27.2383 28.9098"
    fill="#231F20" />
  <path
    d="M29.0864 25.6004C30.0748 25.6004 30.8655 26.2164 30.8655 27.2048C30.8757 27.439 30.8375 27.6728 30.7531 27.8915C30.6687 28.1102 30.54 28.3091 30.3752 28.4758C30.2103 28.6424 30.0127 28.7731 29.7949 28.8598C29.5771 28.9464 29.3437 28.9871 29.1094 28.9793C28.8856 28.99 28.6621 28.9547 28.4525 28.8755C28.243 28.7964 28.0519 28.675 27.8912 28.519C27.7304 28.363 27.6034 28.1757 27.518 27.9686C27.4326 27.7615 27.3906 27.5391 27.3947 27.3151C27.3916 27.0895 27.4337 26.8655 27.5185 26.6564C27.6033 26.4473 27.7291 26.2572 27.8884 26.0974C28.0478 25.9377 28.2375 25.8114 28.4464 25.726C28.6553 25.6407 28.8791 25.598 29.1048 25.6004H29.0864ZM29.1737 28.7724C30.0932 28.7724 30.2311 27.9817 30.2311 27.306C30.2311 26.6302 29.8495 25.8119 29.0772 25.8119C28.3049 25.8119 28.0245 26.5336 28.0245 27.1543C28.0245 27.9863 28.406 28.777 29.1554 28.777"
    fill="#231F20" />
  <path
    d="M27.3578 27.3149C27.3541 27.0867 27.3962 26.86 27.4817 26.6484C27.5672 26.4367 27.6943 26.2444 27.8555 26.0828C28.0167 25.9212 28.2087 25.7935 28.4201 25.7075C28.6315 25.6214 28.858 25.5787 29.0863 25.5818V25.6232C28.8633 25.6201 28.6419 25.6617 28.4352 25.7456C28.2286 25.8296 28.0409 25.9541 27.8831 26.1118C27.7254 26.2695 27.6009 26.4572 27.517 26.6639C27.4331 26.8705 27.3915 27.0919 27.3945 27.3149C27.3917 27.5375 27.4346 27.7583 27.5207 27.9636C27.6069 28.1689 27.7343 28.3543 27.8951 28.5082C28.056 28.6622 28.2467 28.7814 28.4556 28.8584C28.6645 28.9354 28.887 28.9687 29.1093 28.956C29.3418 28.9633 29.5732 28.9223 29.7892 28.8358C30.0051 28.7493 30.2008 28.6191 30.364 28.4533C30.5272 28.2875 30.6543 28.0898 30.7374 27.8725C30.8205 27.6552 30.8578 27.4231 30.8469 27.1908C30.8469 26.2162 30.07 25.614 29.0863 25.614V25.5818C30.0838 25.5818 30.8837 26.2024 30.8837 27.2C30.8939 27.4368 30.8552 27.6732 30.77 27.8943C30.6847 28.1155 30.5548 28.3167 30.3882 28.4854C30.2217 28.6541 30.0222 28.7866 29.8021 28.8747C29.582 28.9628 29.3462 29.0046 29.1093 28.9974C28.8818 29.0101 28.6541 28.9757 28.4405 28.8966C28.2268 28.8174 28.0317 28.6951 27.8674 28.5372C27.7031 28.3794 27.5731 28.1894 27.4854 27.9791C27.3977 27.7688 27.3543 27.5427 27.3578 27.3149V27.3149ZM28.006 27.1494C28.006 26.5242 28.2496 25.7703 29.0771 25.7703C29.9045 25.7703 30.2355 26.6115 30.2355 27.2919C30.2355 27.9723 30.0746 28.7813 29.1552 28.7813V28.7538C30.0379 28.7538 30.1942 27.9815 30.1942 27.3057C30.1942 26.6299 29.831 25.8116 29.0771 25.8116C28.3232 25.8116 28.0473 26.5196 28.0473 27.1356C28.0473 27.9631 28.4243 28.74 29.1552 28.74V28.7813C28.3875 28.7813 28.006 27.9723 28.006 27.1356"
    fill="#231F20" />
  <path
    d="M33.9913 27.9953V26.2714C34.0028 26.2129 34.0007 26.1525 33.985 26.095C33.9693 26.0375 33.9405 25.9844 33.9009 25.9399C33.8613 25.8954 33.8119 25.8606 33.7566 25.8384C33.7013 25.8161 33.6416 25.807 33.5822 25.8117H33.4856V25.6692C33.7017 25.6692 33.9177 25.6692 34.1338 25.6692C34.3499 25.6692 34.5154 25.6692 34.7038 25.6692V25.8117H34.6349C34.4372 25.8117 34.2212 25.8484 34.2212 26.4001V28.5101C34.2189 28.6639 34.2282 28.8175 34.2487 28.9699H34.074L31.6836 26.3082V28.2159C31.6836 28.6205 31.7617 28.7584 32.1433 28.7584H32.2214V28.9009C32.0238 28.9009 31.8261 28.9009 31.6238 28.9009C31.4215 28.9009 31.2009 28.9009 30.994 28.9009V28.7584H31.0584C31.3802 28.7584 31.4767 28.5423 31.4767 28.17V26.23C31.4767 26.1747 31.4657 26.1199 31.4444 26.0688C31.4231 26.0178 31.3919 25.9715 31.3526 25.9326C31.3132 25.8936 31.2666 25.8629 31.2153 25.8422C31.164 25.8214 31.1091 25.8111 31.0538 25.8117H30.9802V25.6692C31.1549 25.6692 31.3342 25.6692 31.5135 25.6692C31.6928 25.6692 31.7847 25.6692 31.9226 25.6692L33.9913 27.9953Z"
    fill="#231F20" />
  <path
    d="M34.258 28.9971H34.0649L31.7112 26.3722V28.211C31.7112 28.6156 31.7802 28.7305 32.1296 28.7351H32.2307V28.9144C32.033 28.9144 31.8308 28.9144 31.6331 28.9144C31.4354 28.9144 31.2148 28.9144 31.0033 28.9144V28.7351H31.086C31.3894 28.7351 31.4814 28.5374 31.4814 28.1651V26.2297C31.482 26.177 31.4721 26.1247 31.4522 26.0759C31.4323 26.0271 31.4029 25.9828 31.3656 25.9455C31.3284 25.9083 31.284 25.8788 31.2352 25.859C31.1864 25.8391 31.1341 25.8292 31.0814 25.8298H31.0033V25.6505C31.178 25.6505 31.3619 25.6505 31.5366 25.6505C31.7112 25.6505 31.8078 25.6505 31.9641 25.6505L34.0006 27.949V26.2711C34.0006 25.8987 33.7523 25.8573 33.6144 25.8528H33.4949V25.6735C33.711 25.6735 33.927 25.6735 34.1385 25.6735C34.35 25.6735 34.5201 25.6735 34.7131 25.6735V25.8114H34.6258C34.4327 25.8114 34.235 25.8114 34.2304 26.3814V28.4915C34.2278 28.6452 34.2371 28.7989 34.258 28.9512V28.9742V28.9971ZM34.0833 28.9558H34.235C34.2225 28.8028 34.2225 28.649 34.235 28.4961V26.3998C34.235 25.8436 34.4695 25.793 34.6672 25.7884H34.7177V25.6919C34.5338 25.6919 34.35 25.6919 34.1615 25.6919C33.973 25.6919 33.7477 25.6919 33.5363 25.6919V25.8114H33.6144C33.6742 25.8082 33.734 25.8182 33.7895 25.8407C33.845 25.8631 33.8949 25.8975 33.9356 25.9413C33.9764 25.9852 34.0071 26.0374 34.0254 26.0944C34.0438 26.1514 34.0494 26.2117 34.042 26.2711V28.0226L31.9733 25.6919C31.84 25.6919 31.7021 25.6919 31.5641 25.6919C31.4262 25.6919 31.2194 25.6919 31.0493 25.6919V25.8114H31.0906C31.2126 25.8114 31.3295 25.8598 31.4157 25.946C31.5019 26.0322 31.5503 26.1492 31.5503 26.2711V28.2202C31.5503 28.5926 31.4492 28.8317 31.0906 28.8317H31.0447V28.9282C31.2469 28.9282 31.4538 28.9282 31.6561 28.9282C31.8583 28.9282 32.0422 28.9282 32.2353 28.9282V28.8317H32.1296C31.7664 28.8317 31.6699 28.6708 31.6699 28.2662V26.2711L34.0833 28.9558Z"
    fill="#231F20" />
  <path
    d="M35.4576 28.243C35.4123 28.3606 35.3785 28.4822 35.3564 28.6062C35.3564 28.7441 35.5541 28.7671 35.7012 28.7671H35.7564V28.9096C35.5679 28.9096 35.3794 28.9096 35.1955 28.9096C35.0117 28.9096 34.86 28.9096 34.6945 28.9096V28.7671H34.7174C34.8082 28.7679 34.8967 28.7392 34.9696 28.6853C35.0426 28.6314 35.0961 28.5552 35.122 28.4683L35.8667 26.3399C35.9375 26.1528 35.9944 25.9607 36.0368 25.7652C36.1848 25.7135 36.3266 25.6457 36.4597 25.563H36.4965C36.4965 25.563 36.4965 25.563 36.5287 25.563L36.5701 25.6825L37.4251 28.1097C37.4803 28.2706 37.5354 28.4453 37.5952 28.5694C37.6197 28.6293 37.663 28.6796 37.7185 28.7127C37.7741 28.7459 37.8389 28.7601 37.9032 28.7533H37.9308V28.8958C37.7193 28.8958 37.5125 28.8958 37.2918 28.8958C37.0711 28.8958 36.8321 28.8958 36.593 28.8958V28.7533H36.6436C36.7493 28.7533 36.9332 28.7533 36.9332 28.62C36.9151 28.5051 36.8843 28.3925 36.8413 28.2844L36.6574 27.7466H35.6093L35.4576 28.243ZM36.1287 26.1882L35.6966 27.5029H36.5655L36.1287 26.1882Z"
    fill="#231F20" />
  <path
    d="M37.931 28.9284C37.7195 28.9284 37.5127 28.9284 37.292 28.9284C37.0713 28.9284 36.8323 28.9284 36.5933 28.9284V28.7491H36.6622C36.7725 28.7491 36.9288 28.7491 36.9334 28.6341C36.9143 28.5219 36.8819 28.4123 36.8369 28.3077L36.6622 27.7837H35.6187L35.4762 28.2434C35.4318 28.3581 35.398 28.4766 35.375 28.5974C35.375 28.7123 35.5497 28.7399 35.7014 28.7399H35.775V28.9192C35.5911 28.9192 35.4026 28.9192 35.2187 28.9192C35.0348 28.9192 34.8831 28.9192 34.7177 28.9192V28.7399H34.7682C34.8547 28.74 34.9389 28.7117 35.0079 28.6594C35.0768 28.6071 35.1266 28.5336 35.1498 28.4503L35.8945 26.3218C35.9661 26.1306 36.0275 25.9357 36.0784 25.738C36.2237 25.6835 36.3637 25.6157 36.4967 25.5357H36.5427C36.5529 25.5346 36.5632 25.5367 36.5723 25.5416C36.5813 25.5465 36.5886 25.5541 36.5933 25.5633L36.6346 25.6782L37.4437 28.1101C37.4989 28.271 37.554 28.4411 37.6138 28.5698C37.6352 28.6274 37.6754 28.6761 37.728 28.7078C37.7807 28.7395 37.8425 28.7525 37.9034 28.7445H37.9494V28.9238L37.931 28.9284ZM36.6162 28.887C36.8415 28.887 37.0759 28.887 37.292 28.887C37.5081 28.887 37.7057 28.887 37.908 28.887V28.7904C37.8398 28.7959 37.7715 28.7797 37.7129 28.7443C37.6543 28.7088 37.6084 28.6558 37.5816 28.5928C37.5219 28.4503 37.4667 28.2802 37.4115 28.1331L36.5565 25.7058C36.5565 25.669 36.5289 25.6277 36.5151 25.5955C36.5013 25.5633 36.5151 25.5955 36.5151 25.5955H36.4783C36.3495 25.6755 36.2103 25.7374 36.0646 25.7794C36.024 25.9768 35.9672 26.1706 35.8945 26.3586L35.1498 28.487C35.1208 28.5763 35.0651 28.6545 34.9903 28.7112C34.9156 28.7679 34.8252 28.8004 34.7314 28.8042V28.9008C34.8923 28.9008 35.0532 28.9008 35.1911 28.9008C35.3291 28.9008 35.5497 28.9008 35.7336 28.9008V28.8042H35.6968C35.5497 28.8042 35.3383 28.8042 35.3337 28.6203C35.3538 28.4944 35.3878 28.3711 35.4348 28.2526V28.2526L35.5865 27.7561H36.6714L36.8553 28.3077C36.8995 28.417 36.9304 28.5313 36.9472 28.6479C36.9472 28.7904 36.745 28.7996 36.6392 28.8042H36.6116L36.6162 28.887ZM35.6646 27.5079L36.1244 26.1563L36.5841 27.5079H35.6646ZM35.7244 27.4665H36.5335L36.1289 26.2253L35.7244 27.4665Z"
    fill="#231F20" />
  <path
    d="M39.0988 28.455C39.0988 28.6389 39.2275 28.694 39.3746 28.7124C39.5796 28.7306 39.7857 28.7306 39.9906 28.7124C40.0802 28.7047 40.1671 28.6786 40.2462 28.6359C40.3253 28.5932 40.3947 28.5348 40.4503 28.4642C40.5165 28.3606 40.5661 28.2474 40.5974 28.1286H40.7262C40.6756 28.3952 40.6112 28.6527 40.5515 28.9193C40.1469 28.9193 39.7378 28.9193 39.3287 28.9193C38.9195 28.9193 38.515 28.9193 38.1058 28.9193V28.7768H38.1702C38.3403 28.7768 38.5196 28.7538 38.5196 28.4688V26.0737C38.5196 25.8347 38.3403 25.8117 38.1702 25.8117H38.1058V25.6692C38.3495 25.6692 38.5931 25.6692 38.8368 25.6692C39.0804 25.6692 39.2965 25.6692 39.5447 25.6692V25.8117H39.4252C39.2505 25.8117 39.1126 25.8117 39.1126 26.0645L39.0988 28.455Z"
    fill="#231F20" />
  <path
    d="M40.5376 28.9282C40.133 28.9282 39.7239 28.9282 39.3147 28.9282C38.9056 28.9282 38.5011 28.9282 38.0919 28.9282V28.7489H38.1747C38.3402 28.7489 38.5011 28.7489 38.5057 28.4593V26.0734C38.5057 25.8482 38.3448 25.8344 38.1747 25.8298H38.0919V25.6505C38.3402 25.6505 38.5792 25.6505 38.8229 25.6505C39.0665 25.6505 39.2826 25.6505 39.5308 25.6505V25.8114H39.3929C39.2136 25.8114 39.1033 25.8114 39.0987 26.0412V28.4363C39.0987 28.6064 39.2136 28.6524 39.3607 28.6754H39.6135C39.7314 28.6821 39.8496 28.6821 39.9675 28.6754C40.1377 28.6532 40.2926 28.5659 40.3996 28.4317C40.4637 28.3314 40.5103 28.2211 40.5376 28.1053V28.1053H40.726C40.6755 28.3719 40.6111 28.6294 40.5559 28.896L40.5376 28.9282ZM40.5376 28.8868C40.5927 28.6386 40.6525 28.3903 40.6985 28.1375H40.6065C40.5807 28.2545 40.5323 28.3654 40.464 28.4639C40.4086 28.5359 40.3394 28.5961 40.2605 28.6411C40.1816 28.6861 40.0945 28.7149 40.0043 28.7259C39.8802 28.7259 39.7607 28.7259 39.6457 28.7259H39.3883C39.2366 28.7259 39.0895 28.6432 39.0895 28.4455V26.0596C39.0895 25.8022 39.255 25.7884 39.4251 25.7884H39.5216V25.6919C39.2963 25.6919 39.0619 25.6919 38.8366 25.6919C38.6114 25.6919 38.3769 25.6919 38.1241 25.6919V25.8114H38.1701C38.3356 25.8114 38.5378 25.8436 38.5378 26.0964V28.4823C38.5378 28.7811 38.3356 28.8133 38.1701 28.8133H38.1241V28.9098C38.524 28.9098 38.9286 28.9098 39.3285 28.9098C39.7285 28.9098 40.133 28.9098 40.5376 28.9098"
    fill="#231F20" />
  <path
    d="M40.6572 25.5406C40.7534 25.5415 40.8471 25.5708 40.9267 25.6249C41.0062 25.679 41.0679 25.7554 41.1041 25.8445C41.1403 25.9336 41.1493 26.0315 41.13 26.1257C41.1107 26.2199 41.0639 26.3063 40.9956 26.374C40.9272 26.4417 40.8404 26.4877 40.746 26.5061C40.6516 26.5245 40.5539 26.5146 40.4651 26.4776C40.3763 26.4406 40.3005 26.3781 40.2471 26.2981C40.1938 26.2181 40.1653 26.124 40.1653 26.0278C40.1612 25.9624 40.1712 25.8968 40.1945 25.8355C40.2178 25.7742 40.254 25.7186 40.3006 25.6725C40.3472 25.6263 40.4031 25.5907 40.4646 25.5679C40.5261 25.5452 40.5918 25.5358 40.6572 25.5406ZM40.6572 26.4278C40.7613 26.4254 40.8602 26.382 40.9325 26.3072C41.0048 26.2323 41.0446 26.1319 41.0434 26.0278C41.0434 25.9246 41.003 25.8254 40.9308 25.7515C40.8587 25.6776 40.7605 25.6349 40.6572 25.6325C40.5591 25.6431 40.4684 25.6895 40.4025 25.7629C40.3366 25.8363 40.3001 25.9315 40.3001 26.0301C40.3001 26.1288 40.3366 26.224 40.4025 26.2974C40.4684 26.3708 40.5591 26.4172 40.6572 26.4278ZM40.4136 26.2853C40.4733 26.2853 40.4825 26.2853 40.4825 26.2439V25.8578C40.4825 25.8072 40.4825 25.7888 40.4136 25.7934V25.7658H40.6664C40.7492 25.7658 40.8273 25.8072 40.8273 25.8991C40.8273 25.933 40.816 25.9658 40.7952 25.9925C40.7743 26.0191 40.7452 26.038 40.7124 26.0462L40.7951 26.1566C40.8245 26.1999 40.8602 26.2386 40.9009 26.2715H40.8043C40.7629 26.2715 40.7216 26.175 40.6296 26.0508H40.5791V26.2117C40.5791 26.2439 40.5791 26.2393 40.648 26.2485L40.4136 26.2853ZM40.5791 26.0278H40.6342C40.6986 26.0278 40.7262 25.9819 40.7262 25.9037C40.7284 25.8903 40.7275 25.8766 40.7235 25.8637C40.7195 25.8507 40.7126 25.8388 40.7032 25.829C40.6938 25.8192 40.6823 25.8117 40.6695 25.8071C40.6568 25.8025 40.6431 25.801 40.6296 25.8026H40.5791V26.0278Z"
    fill="#231F20" />
  <path
    d="M11.7047 9.17941C11.7038 7.62616 12.1633 6.10749 13.0253 4.81531C13.8872 3.52313 15.1128 2.51543 16.5472 1.91956C17.9816 1.32369 19.5604 1.16638 21.0842 1.46752C22.608 1.76865 24.0084 2.51471 25.1083 3.61142C26.2082 4.70814 26.9583 6.10628 27.2639 7.62918C27.5695 9.15208 27.4168 10.7314 26.8252 12.1675C26.2335 13.6037 25.2294 14.8322 23.9397 15.6979C22.6501 16.5636 21.1327 17.0276 19.5795 17.0312C18.5466 17.0336 17.5234 16.8323 16.5684 16.4389C15.6134 16.0454 14.7453 15.4675 14.0139 14.7383C13.2825 14.009 12.7021 13.1426 12.3058 12.1888C11.9096 11.2349 11.7053 10.2123 11.7047 9.17941Z"
    fill="white" />
  <path
    d="M19.5796 17.1738C17.4222 17.1897 15.3464 16.3501 13.8067 14.8389C12.267 13.3276 11.3889 11.2678 11.3646 9.11052C11.3401 8.02543 11.5358 6.94663 11.9401 5.93935C12.3444 4.93208 12.9487 4.01726 13.7166 3.25022C14.4845 2.48318 15.4 1.87984 16.4077 1.4767C17.4155 1.07356 18.4945 0.878994 19.5796 0.904758H21.6896C26.1396 0.904758 30.1988 4.25602 30.1988 9.11052C30.1988 13.5467 26.1396 17.1738 21.6896 17.1738H19.5796ZM19.5796 1.57593C18.1066 1.57593 16.6668 2.0127 15.4421 2.83102C14.2174 3.64933 13.2629 4.81243 12.6992 6.17324C12.1355 7.53404 11.9881 9.03144 12.2754 10.4761C12.5628 11.9207 13.272 13.2477 14.3136 14.2892C15.3551 15.3307 16.682 16.04 18.1267 16.3273C19.5713 16.6147 21.0687 16.4672 22.4295 15.9035C23.7903 15.3399 24.9534 14.3853 25.7717 13.1606C26.59 11.9359 27.0268 10.4961 27.0268 9.02318C27.0256 7.04842 26.2406 5.15489 24.8442 3.75852C23.4478 2.36216 21.5543 1.57715 19.5796 1.57593V1.57593ZM17.897 13.4272V4.61919C17.0061 4.96079 16.2396 5.56461 15.699 6.3509C15.1584 7.13718 14.869 8.06896 14.869 9.02318C14.869 9.97739 15.1584 10.9092 15.699 11.6955C16.2396 12.4817 17.0061 13.0856 17.897 13.4272V13.4272ZM24.3329 9.02318C24.3298 8.06639 24.0362 7.13311 23.4912 6.34674C22.9462 5.56037 22.1753 4.95797 21.2805 4.61919V13.4318C22.1713 13.0885 22.9375 12.4836 23.4782 11.6968C24.0189 10.9099 24.3088 9.9779 24.3099 9.02318"
    fill="#0B4F94" />
</svg>