<svg width="42" height="26" viewBox="0 0 42 26" fill="none" xmlns="http://www.w3.org/2000/svg">
  <path d="M26.4463 3.06848H15.4012V22.9168H26.4463V3.06848Z" fill="#7375CF" />
  <path
    d="M16.1024 12.993C16.1006 11.0814 16.5338 9.19455 17.3691 7.47517C18.2044 5.75579 19.4199 4.24897 20.9236 3.06879C19.0615 1.6051 16.8251 0.694853 14.4701 0.442087C12.1151 0.189322 9.73643 0.604239 7.60608 1.63941C5.47573 2.67459 3.67961 4.28825 2.423 6.29596C1.16639 8.30367 0.5 10.6244 0.5 12.993C0.5 15.3615 1.16639 17.6823 2.423 19.69C3.67961 21.6977 5.47573 23.3114 7.60608 24.3465C9.73643 25.3817 12.1151 25.7966 14.4701 25.5439C16.8251 25.2911 19.0615 24.3808 20.9236 22.9172C19.4199 21.737 18.2044 20.2302 17.3691 18.5108C16.5338 16.7914 16.1006 14.9045 16.1024 12.993V12.993Z"
    fill="#EB001B" />
  <path
    d="M40.1421 20.8145V20.4082H40.306V20.3254H39.8887V20.4082H40.0526V20.8145H40.1421ZM40.9523 20.8145V20.3246H40.8243L40.6772 20.6616L40.5301 20.3246H40.4021V20.8145H40.4924V20.445L40.6304 20.7636H40.724L40.862 20.4442V20.8145H40.9523Z"
    fill="#00A2E5" />
  <path
    d="M41.3466 12.993C41.3466 15.3615 40.6803 17.6822 39.4238 19.6899C38.1673 21.6977 36.3712 23.3113 34.2409 24.3465C32.1106 25.3817 29.732 25.7966 27.377 25.5439C25.022 25.2911 22.7857 24.3808 20.9236 22.9172C22.426 21.7358 23.6405 20.2287 24.4757 18.5096C25.3108 16.7905 25.7448 14.9042 25.7448 12.993C25.7448 11.0817 25.3108 9.19545 24.4757 7.47633C23.6405 5.75722 22.426 4.25015 20.9236 3.06879C22.7857 1.6051 25.022 0.694847 27.377 0.442085C29.732 0.189323 32.1106 0.604247 34.2409 1.63943C36.3712 2.67462 38.1673 4.28829 39.4238 6.296C40.6803 8.30372 41.3466 10.6245 41.3466 12.993V12.993Z"
    fill="#00A2E5" />
</svg>