<svg width="42" height="27" viewBox="0 0 42 27" fill="none" xmlns="http://www.w3.org/2000/svg">
  <path d="M26.4353 3.23773H15.3582V23.4124H26.4353V3.23773Z" fill="#FF5A00" />
  <path
    d="M16.1038 13.2977C16.1038 9.18704 18.021 5.56318 20.8968 3.18333C18.7666 1.45253 16.0506 0.424866 13.1215 0.424866C6.14507 0.424866 0.5 6.15814 0.5 13.2436C0.5 20.3291 6.14507 26.0623 13.1215 26.0623C16.0506 26.0623 18.7666 25.0347 20.8968 23.3039C18.021 21.0863 16.1038 17.4083 16.1038 13.2977Z"
    fill="#EB001B" />
  <path
    d="M41.3466 13.2969C41.3466 20.3824 35.7016 26.1156 28.7251 26.1156C25.7961 26.1156 23.08 25.088 20.9498 23.3572C23.8789 20.9773 25.7428 17.3535 25.7428 13.2428C25.7428 9.13217 23.8256 5.50831 20.9498 3.12846C23.08 1.39766 25.7961 0.369995 28.7251 0.369995C35.7016 0.47817 41.3466 6.26553 41.3466 13.2969Z"
    fill="#F79E1B" />
</svg>