<svg width="44" height="12" viewBox="0 0 44 12" fill="none" xmlns="http://www.w3.org/2000/svg">
  <path fill-rule="evenodd" clip-rule="evenodd"
    d="M4.25408 0.00397002C4.64311 0.00161919 5.79929 -0.103564 6.28902 1.56598C6.61891 2.69061 7.14441 4.53279 7.86551 7.09254H8.15918C8.9325 4.39388 9.46372 2.55169 9.75287 1.56598C10.2477 -0.120955 11.4848 0.00400308 11.9796 0.00400308L15.7974 0.00400789V12H11.9062V4.93055H11.6453L9.47615 12H6.54854L4.3794 4.92531H4.11847V12H0.227295V0.00400789L4.25408 0.00397002ZM21.385 0.00400789V7.07869H21.6955L24.334 1.26123C24.8462 0.103538 25.9378 0.00400789 25.9378 0.00400789H29.7033V12H25.7309V4.92531H25.4205L22.8337 10.7428C22.3215 11.8952 21.1781 12 21.1781 12H17.4126V0.00400789H21.385ZM43.4339 5.70458C42.8797 7.29067 41.1396 8.42658 39.213 8.42658H35.0472V12H31.2696V5.70458H43.4339Z"
    fill="#0F754E" />
  <path fill-rule="evenodd" clip-rule="evenodd"
    d="M39.3951 0.00421143H31.0714C31.2695 2.67493 33.5465 4.96123 35.9036 4.96123H43.6962C44.1459 2.74155 42.5979 0.00421143 39.3951 0.00421143Z"
    fill="url(#paint0_linear_1177_7576)" />
  <defs>
    <linearGradient id="paint0_linear_1177_7576" x1="43.7727" y1="3.12239" x2="31.0714" y2="3.12239"
      gradientUnits="userSpaceOnUse">
      <stop stop-color="#1F5CD7" />
      <stop offset="1" stop-color="#02AEFF" />
    </linearGradient>
  </defs>
</svg>