<svg width="42" height="27" viewBox="0 0 42 27" fill="none" xmlns="http://www.w3.org/2000/svg">
  <path
    d="M8.35496 0.997463H18.7291C19.0543 0.983388 19.3782 1.04816 19.673 1.18627C19.9678 1.32438 20.2249 1.53172 20.4223 1.79063C20.6197 2.04953 20.7516 2.35233 20.8067 2.6732C20.8618 2.99408 20.8385 3.32353 20.7388 3.63346L15.9086 24.372C15.7184 25.0972 15.3019 25.7429 14.7196 26.2152C14.1373 26.6875 13.4195 26.9618 12.6706 26.9982H2.29652C1.97236 27.0118 1.64972 26.947 1.3559 26.8094C1.06209 26.6718 0.805751 26.4655 0.608583 26.2078C0.411416 25.9502 0.279227 25.6488 0.223206 25.3292C0.167185 25.0097 0.188978 24.6813 0.286747 24.372L5.14126 3.63346C5.32986 2.90693 5.7458 2.25973 6.32833 1.78637C6.91087 1.313 7.62948 1.03828 8.37922 1.00232"
    fill="#ED171F" />
  <path
    d="M17.8649 0.99762H29.7925C31.2488 0.99762 30.5886 2.17727 30.2488 3.62877L25.4186 24.3673C25.0836 25.8236 25.1904 26.9935 23.734 26.9935H11.8065C11.482 27.0085 11.1588 26.9447 10.8644 26.8074C10.5701 26.6702 10.3133 26.4636 10.1163 26.2054C9.91918 25.9473 9.78761 25.6452 9.7328 25.3251C9.67799 25.0049 9.70159 24.6763 9.80157 24.3673L14.627 3.63362C14.8169 2.90783 15.2333 2.26147 15.8155 1.78834C16.3978 1.31521 17.1156 1.03994 17.8649 1.00247"
    fill="#082F67" />
  <path
    d="M29.3215 0.997683H39.6956C40.0213 0.982793 40.3457 1.04697 40.6412 1.18473C40.9367 1.32249 41.1944 1.52973 41.3924 1.78876C41.5903 2.04778 41.7226 2.35088 41.778 2.67216C41.8333 2.99344 41.8101 3.32334 41.7102 3.63368L36.8557 24.3673C36.666 25.0937 36.2489 25.7404 35.6655 26.2129C35.0821 26.6854 34.3629 26.9589 33.6129 26.9936H23.2631C22.9389 27.0071 22.6163 26.9424 22.3225 26.8048C22.0287 26.6672 21.7723 26.4608 21.5751 26.2032C21.378 25.9455 21.2458 25.6442 21.1898 25.3246C21.1337 25.005 21.1555 24.6767 21.2533 24.3673L26.0835 3.63368C26.2721 2.90715 26.6881 2.25995 27.2706 1.78659C27.8531 1.31322 28.5718 1.0385 29.3215 1.00253"
    fill="#006A65" />
  <path fill-rule="evenodd" clip-rule="evenodd"
    d="M27.5886 20.5024H28.5595L28.8411 19.5607H27.8702L27.5886 20.5024ZM28.3702 17.9053L28.0352 19.017C28.2206 18.9221 28.4119 18.8393 28.608 18.7694C28.7684 18.734 28.9304 18.7064 29.0935 18.6868L29.3314 17.9053H28.3702ZM28.8556 16.3081L28.5352 17.3761C28.7167 17.292 28.9031 17.2191 29.0935 17.1577C29.2533 17.1214 29.4156 17.0971 29.579 17.0849L29.812 16.3081H28.8556ZM31.0207 16.3081L29.7586 20.4879H30.0984L29.8314 21.3568H29.4916L29.4139 21.6238H28.21L28.2925 21.3568H25.8652L26.1128 20.5558H26.3604L27.642 16.3081L27.8993 15.4489H29.0886L28.9576 15.8809C29.1544 15.7447 29.3704 15.6384 29.5984 15.5654C29.9042 15.4829 31.6858 15.4537 31.6858 15.4537L31.4237 16.3081H31.0207Z"
    fill="white" />
  <path
    d="M31.5642 15.4539H32.8701V15.9394C32.8701 16.0219 32.9283 16.0608 33.0837 16.0608H33.3507L33.1031 16.8666H32.3992C31.7827 16.9103 31.5545 16.6482 31.5691 16.352L31.5642 15.4539Z"
    fill="white" />
  <path
    d="M31.7344 19.2793H30.4868L30.7004 18.5608H32.1276L32.3315 17.9055H30.9237L31.1664 17.0948H35.0888L34.8413 17.9055H33.5257L33.3218 18.5608H34.6374L34.4189 19.2793H32.9723L32.7199 19.5803H33.3024L33.4432 20.4832C33.4448 20.5486 33.4597 20.613 33.4869 20.6725C33.5823 20.711 33.6851 20.7276 33.7878 20.7211H33.9675L33.7005 21.5997H33.2538H32.9432C32.8284 21.576 32.7195 21.5298 32.6228 21.4638C32.5629 21.4343 32.5108 21.3913 32.4704 21.3383C32.4299 21.2852 32.4023 21.2235 32.3897 21.158L32.2538 20.2551L31.6033 21.1434C31.4971 21.3013 31.3519 21.4289 31.1818 21.514C31.0116 21.5991 30.8224 21.6386 30.6324 21.6289H29.7246L29.9625 20.8424H30.312C30.4008 20.8388 30.4874 20.8138 30.5644 20.7696C30.6444 20.738 30.7124 20.682 30.7586 20.6094L31.7344 19.2793Z"
    fill="white" />
  <path
    d="M18.0591 17.3132H21.365L21.1223 18.1045H19.797L19.5931 18.7744H20.9475L20.6999 19.59H19.3455L19.0203 20.6822C18.9814 20.8036 19.3407 20.823 19.4717 20.823L20.1465 20.7259L19.8746 21.6289H18.3503C18.2339 21.6265 18.1182 21.6102 18.0057 21.5803C17.8982 21.544 17.8068 21.4712 17.7473 21.3746C17.6879 21.2779 17.6642 21.1635 17.6804 21.0512L18.1173 19.5948H17.3649L17.6173 18.7647H18.3698L18.5688 18.0948H17.8212L18.0591 17.3132Z"
    fill="white" />
  <path
    d="M20.2874 15.8963H21.6418L21.3942 16.7215H19.5398L19.3407 16.8963C19.2534 16.9788 19.2242 16.9448 19.1126 17.0031C18.9244 17.1045 18.7147 17.1595 18.5009 17.1633H17.9232L18.1611 16.3671H18.3407C18.4447 16.3774 18.5496 16.3624 18.6465 16.3235C18.7317 16.254 18.7998 16.166 18.8456 16.0662L19.1854 15.4448H20.5349L20.2874 15.8963Z"
    fill="white" />
  <path fill-rule="evenodd" clip-rule="evenodd"
    d="M22.8894 17.255C23.1775 17.0196 23.5223 16.8639 23.8894 16.8035C24.0351 16.8035 24.938 16.8035 24.938 16.8035L25.0739 16.352H23.1661L22.8894 17.255ZM24.6759 17.5996H22.7777L22.6612 17.9783H24.3021C24.3844 17.9705 24.4673 17.9705 24.5496 17.9783L24.6759 17.5996ZM22.2243 15.4539H23.3797L23.2098 16.0365C23.4014 15.8823 23.6098 15.7504 23.8312 15.6433C24.1029 15.5612 24.3804 15.4995 24.6613 15.4588H26.5303L25.8944 17.5802C25.8287 17.8313 25.7238 18.0705 25.5837 18.289C25.505 18.4101 25.3963 18.5088 25.2681 18.5754C25.1361 18.6541 24.9888 18.7037 24.8361 18.721C24.7098 18.721 24.5205 18.721 24.2584 18.721H22.4573L21.9719 20.4007C21.9233 20.5657 21.8991 20.6434 21.9282 20.6871C21.9477 20.7151 21.9739 20.7378 22.0044 20.7531C22.035 20.7684 22.0688 20.7757 22.103 20.7745L22.8942 20.6968L22.6273 21.6192H21.734C21.4525 21.6192 21.2486 21.6192 21.1029 21.6192C20.974 21.63 20.8446 21.6048 20.7291 21.5464C20.6418 21.4735 20.5155 21.3813 20.5204 21.2794C20.5452 21.1281 20.5809 20.9789 20.6272 20.8327L22.2243 15.4539Z"
    fill="white" />
  <path
    d="M25.5932 18.8812L25.4864 19.3667C25.4589 19.5133 25.3858 19.6475 25.2776 19.7502C25.1948 19.8275 25.0968 19.8869 24.9898 19.9245C24.8829 19.9621 24.7693 19.9771 24.6562 19.9686L24.0203 19.9977V20.5706C24.0203 20.7356 24.0591 20.7211 24.0834 20.7453C24.1066 20.7704 24.1372 20.7874 24.1708 20.7939H24.3698L24.9815 20.755L24.7194 21.5949H24.0203C23.6928 21.6318 23.3611 21.5954 23.0494 21.4881C22.9329 21.4153 22.9183 21.323 22.9183 21.1628L22.962 18.9152H24.0834V19.3715H24.3553C24.4214 19.3784 24.4882 19.3684 24.5494 19.3424C24.5866 19.3103 24.6136 19.2682 24.6271 19.221L24.7339 18.8666L25.5932 18.8812Z"
    fill="white" />
  <path
    d="M9.5831 7.61874C9.53941 7.79836 8.82094 11.1237 8.82094 11.1237C8.6656 11.7985 8.55394 12.2791 8.17044 12.5801C7.95507 12.7582 7.68284 12.8529 7.40342 12.8471C7.30569 12.8592 7.20649 12.8509 7.11214 12.8227C7.0178 12.7944 6.93038 12.7468 6.85547 12.6828C6.78057 12.6189 6.71981 12.54 6.67707 12.4513C6.63434 12.3625 6.61057 12.2659 6.60728 12.1674V12.0121L6.75292 11.1091C6.75292 11.1091 7.51022 8.07992 7.64615 7.68185V7.63816C7.06461 7.68654 6.48006 7.68654 5.89852 7.63816C5.89852 7.66729 5.84998 7.85661 5.84998 7.85661L5.07811 11.2548L5.01014 11.546L4.88393 12.4878C4.8774 12.7328 4.93425 12.9752 5.04898 13.1917C5.40336 13.8082 6.40339 13.9005 6.99079 13.9005C7.64441 13.9213 8.2921 13.7706 8.86949 13.4636C9.18759 13.249 9.45846 12.9716 9.66549 12.6486C9.87252 12.3255 10.0113 11.9635 10.0734 11.5849L10.1608 11.2451C10.1608 11.2451 10.9375 8.09934 11.0686 7.69156C11.0664 7.67708 11.0664 7.66235 11.0686 7.64787C10.5756 7.68063 10.0809 7.68063 9.58795 7.64787"
    fill="white" />
  <path
    d="M13.8891 13.8617C13.3648 13.8617 13.1803 13.8616 12.5735 13.8859L12.5492 13.8374C12.6026 13.6092 12.6609 13.381 12.7094 13.1432L12.7871 12.8276C12.8988 12.3422 13.0104 11.7548 13.025 11.5849C13.0395 11.415 13.0687 11.2159 12.7677 11.2159C12.63 11.2308 12.4965 11.272 12.3745 11.3373C12.3016 11.5994 12.1512 12.3373 12.0832 12.6771C11.9327 13.3859 11.923 13.4636 11.855 13.8131L11.8113 13.8617C11.2725 13.8617 11.088 13.8616 10.4666 13.8859L10.4375 13.8325C10.5443 13.4086 10.6462 12.9862 10.7433 12.5655C10.9139 11.8618 11.042 11.1486 11.1268 10.4295L11.1754 10.3907C11.7822 10.3081 11.9278 10.2936 12.5783 10.1577L12.6366 10.2208L12.5347 10.5849C12.6463 10.5169 12.7482 10.4489 12.8648 10.3907C13.1278 10.2671 13.414 10.2009 13.7046 10.1965C13.8541 10.1791 14.0052 10.2097 14.1361 10.2838C14.267 10.358 14.3709 10.472 14.4328 10.6091C14.559 10.9004 14.4765 11.2645 14.3114 11.9829L14.2289 12.347C14.059 13.1432 14.0347 13.2888 13.9376 13.8325L13.8891 13.8617Z"
    fill="white" />
  <path
    d="M16.0057 13.8624C15.695 13.8624 15.4911 13.8624 15.2921 13.8624C15.093 13.8624 14.9037 13.8624 14.6124 13.8867V13.8624V13.8333C14.6583 13.6589 14.7134 13.4872 14.7775 13.3187C14.8394 13.1492 14.8897 12.9756 14.928 12.7993C15.0153 12.4012 15.0736 12.1196 15.1124 11.8769C15.1513 11.6342 15.1804 11.4351 15.2095 11.2021H15.2338L15.2581 11.1778L15.9717 11.071C16.1804 11.0419 16.3843 11.0031 16.7096 10.94V10.9691V10.9982C16.6513 11.2458 16.5882 11.4837 16.53 11.7458L16.3552 12.4886C16.2387 13.0129 16.1902 13.2119 16.1659 13.3527C16.1416 13.4934 16.1319 13.5566 16.0833 13.8381L16.0542 13.8624H16.0057Z"
    fill="white" />
  <path
    d="M19.3309 12.0085C19.2754 12.3085 19.1704 12.5972 19.0203 12.8629C18.9817 12.934 18.9259 12.9943 18.8581 13.0384C18.7903 13.0825 18.7125 13.1089 18.6319 13.1153C18.5882 13.1153 18.3309 13.1153 18.3261 12.7318C18.3333 12.5305 18.361 12.3304 18.4086 12.1347C18.5494 11.5279 18.7096 11.0181 19.1222 11.0181C19.4475 11.0181 19.4717 11.3968 19.3309 11.9891V12.0085ZM20.6951 12.0473C20.8747 11.2463 20.7339 10.8677 20.5543 10.6395C20.3938 10.4748 20.1984 10.3483 19.9824 10.2693C19.7665 10.1903 19.5355 10.1609 19.3067 10.1832C18.7342 10.1607 18.1743 10.3548 17.7387 10.7269C17.3749 11.0979 17.1314 11.5699 17.0396 12.0813C16.928 12.5667 16.7969 13.4551 17.6124 13.7852C17.8836 13.8808 18.1697 13.9268 18.4571 13.9211C18.7646 13.9341 19.0714 13.883 19.3581 13.771C19.6448 13.659 19.905 13.4886 20.1222 13.2706C20.4034 12.9115 20.5993 12.4932 20.6951 12.0473"
    fill="white" />
  <path
    d="M33.4576 13.9157C32.8265 13.9157 32.6469 13.9157 32.0644 13.9157L32.0255 13.8672C32.1857 13.2701 32.3459 12.673 32.511 12.0662C32.6366 11.5464 32.7307 11.0195 32.7925 10.4884L32.8411 10.4496C33.4673 10.3622 33.6421 10.3379 34.2974 10.2166V10.27C34.1761 10.7554 34.0596 11.2409 33.9431 11.7263C33.7052 12.7603 33.6178 13.2846 33.5256 13.8283L33.4576 13.9157Z"
    fill="white" />
  <path
    d="M32.4868 12.076C32.4319 12.3746 32.3268 12.6618 32.1761 12.9255C32.0531 13.0686 31.8787 13.1575 31.6907 13.1731C31.647 13.1731 31.3946 13.1731 31.3848 12.7944C31.3915 12.5943 31.4208 12.3957 31.4722 12.2022C31.6081 11.6051 31.7683 11.0953 32.181 11.0953C32.5111 11.0953 32.6664 11.4691 32.5062 12.0662L32.4868 12.076ZM33.7538 12.1294C33.9335 11.3284 33.2004 12.0565 33.0839 11.7944C32.8995 11.3818 33.016 10.5468 32.2878 10.2701C32.0141 10.2367 31.7364 10.2686 31.4774 10.3631C31.2183 10.4576 30.9854 10.612 30.7974 10.8138C30.4337 11.1803 30.1914 11.6497 30.1032 12.1585C29.9867 12.6439 29.8605 13.5275 30.6664 13.843C30.8939 13.9429 31.1416 13.9878 31.3897 13.9741C32.2052 13.9304 32.8461 12.7022 33.283 12.2167C33.6373 11.8332 33.7005 12.3624 33.7684 12.1294"
    fill="white" />
  <path
    d="M24.2584 13.8616C23.7341 13.8616 23.5545 13.8616 22.9428 13.8858V13.8373C22.9962 13.6091 23.0544 13.381 23.1078 13.1431L23.1807 12.8276C23.2972 12.3421 23.404 11.7547 23.4185 11.5848C23.4331 11.4149 23.4622 11.2159 23.1661 11.2159C23.0282 11.2293 22.8944 11.2706 22.7729 11.3372C22.7001 11.5994 22.5496 12.3373 22.4768 12.6771C22.3311 13.3858 22.3166 13.4635 22.2535 13.813L22.2049 13.8616C21.6709 13.8616 21.4864 13.8616 20.8651 13.8858L20.8359 13.8276C20.9379 13.4052 21.0398 12.9829 21.1369 12.5606C21.3091 11.8502 21.4404 11.1305 21.5301 10.4052L21.5787 10.3663C22.1806 10.2838 22.3263 10.2692 22.9816 10.1333L23.0302 10.1964L22.9379 10.5605C23.0447 10.4925 23.1515 10.4246 23.2632 10.3663C23.5263 10.2432 23.8125 10.177 24.103 10.1721C24.2531 10.1552 24.4047 10.1859 24.5362 10.26C24.6678 10.334 24.7727 10.4477 24.8361 10.5848C24.9574 10.876 24.8749 11.2401 24.7098 11.9586L24.6273 12.3227C24.4574 13.1188 24.4331 13.2645 24.3409 13.8082L24.2584 13.8616Z"
    fill="white" />
  <path
    d="M28.778 7.61365H28.3459C27.2148 7.61365 26.7633 7.61365 26.5789 7.61365C26.5789 7.69617 26.5303 7.84181 26.5303 7.84181L26.1274 9.72051L25.1177 13.8857C26.0886 13.8857 26.5061 13.8857 26.6711 13.8857L26.943 12.5847C26.943 12.5847 27.1372 11.7691 27.1517 11.74C27.1838 11.6919 27.225 11.6507 27.2731 11.6186H27.3605C28.21 11.6186 29.1712 11.6186 29.9236 11.0652C30.4458 10.6664 30.8061 10.0922 30.9382 9.44865C30.9858 9.26469 31.0102 9.07554 31.011 8.88554C31.0227 8.62806 30.9494 8.37389 30.8023 8.16221C30.4237 7.62821 29.6615 7.6185 28.778 7.61365V7.61365ZM29.3411 9.55545C29.2995 9.75299 29.2148 9.93892 29.0931 10.1C28.9715 10.2611 28.8158 10.3934 28.6372 10.4875C28.3201 10.615 27.978 10.6681 27.6372 10.6429H27.4041V10.5506C27.4041 10.5506 27.8313 8.68164 27.8313 8.6865V8.58941V8.51659H28.0061L28.9091 8.59426C29.0841 8.66937 29.2231 8.80969 29.2965 8.98548C29.3699 9.16128 29.3719 9.35874 29.3023 9.53604"
    fill="white" />
  <path
    d="M38.6035 10.2302L38.555 10.1719C37.9093 10.303 37.7928 10.3224 37.2005 10.4049L37.1568 10.4438C37.1546 10.4533 37.1546 10.4633 37.1568 10.4729V10.4729C36.7151 11.4923 36.7297 11.2739 36.3704 12.0749C36.3728 12.0409 36.3728 12.0069 36.3704 11.9729L36.283 10.2399L36.2248 10.1816C35.5549 10.3127 35.5354 10.3321 34.9141 10.4146L34.8607 10.4535C34.8607 10.4777 34.8607 10.502 34.8607 10.5263C34.925 10.8341 34.972 11.1453 35.0014 11.4583C35.0354 11.769 35.084 12.0797 35.118 12.3856C35.1811 12.871 35.215 13.1429 35.2879 13.9196C34.8704 14.6186 34.7684 14.8905 34.3704 15.4924V15.5458C34.982 15.5458 35.1228 15.5458 35.5694 15.5458L35.6714 15.4342C36.0112 14.7012 38.5841 10.2544 38.5841 10.2544"
    fill="white" />
  <path
    d="M16.5783 10.6638C16.923 10.421 16.9667 10.0909 16.6754 9.91616C16.4884 9.83637 16.2842 9.80564 16.082 9.82688C15.8798 9.84812 15.6864 9.92062 15.5201 10.0375C15.1705 10.2754 15.1317 10.6104 15.423 10.7803C15.6096 10.8607 15.8136 10.8923 16.0158 10.8719C16.218 10.8515 16.4116 10.7799 16.5783 10.6638"
    fill="white" />
  <path
    d="M35.6228 15.4732L35.1373 16.3422C35.0497 16.5103 34.9147 16.6491 34.749 16.7414C34.5834 16.8337 34.3944 16.8755 34.2053 16.8616H33.3994L33.6324 16.0801H33.7926C33.8571 16.0851 33.9219 16.0752 33.9819 16.0509C34.0246 16.0338 34.0605 16.0031 34.0839 15.9635L34.38 15.4781L35.6228 15.4732Z"
    fill="white" />
</svg>