<svg width="42" height="14" viewBox="0 0 42 14" fill="none" xmlns="http://www.w3.org/2000/svg">
  <path
    d="M15.9266 0.264064L10.4465 13.8632H6.85015L4.1529 2.9927C3.98165 2.33254 3.85321 2.11249 3.33945 1.80442C2.26911 1.2763 1.15596 0.880204 0 0.660153L0.0856256 0.264064H5.86544C6.63608 0.264064 7.3211 0.880206 7.40673 1.67239L8.81957 9.50621L12.3303 0.264064H15.9266V0.264064ZM30.0122 9.37418C29.9694 12.1908 27.6575 14.0393 24.104 13.9953C22.8196 14.0393 21.5352 13.7752 20.3364 13.2911L20.9786 10.2984C22.0489 10.9145 23.2477 11.1786 24.4465 11.1786C25.4312 11.1786 26.5015 10.7385 26.5015 9.85829C26.5015 9.28616 26.0306 8.80205 24.7462 8.1859C23.4618 7.52575 21.7492 6.4695 21.792 4.48904C21.8349 1.89244 24.1896 0 27.5291 0C28.5994 0 29.7125 0.220052 30.6972 0.616144L30.0979 3.47681C29.0703 2.94869 27.9144 2.77264 26.7584 2.86066C25.7737 2.9927 25.3028 3.52082 25.3028 4.00493C25.2171 5.5893 30.0122 5.80935 30.0122 9.37418ZM38.8318 13.8192L38.4037 11.7947H34.0367L33.3517 13.8192H29.7982L34.893 1.23229C35.1498 0.616144 35.7064 0.220051 36.3486 0.220051H39.2599L42 13.8192H38.8318ZM35.0214 9.0221H37.8471L36.8196 3.96092L35.0214 9.0221ZM20.7645 0.264064L17.9817 13.8632H14.5994L17.3823 0.264064H20.7645V0.264064Z"
    fill="#161E6F" />
</svg>