<svg width="24" height="24" viewBox="0 0 24 24" fill="none" xmlns="http://www.w3.org/2000/svg">
  <path
    d="M6.8711 14.0108C6.8711 14.0108 6.13827 14.9036 7.18809 15.5383C8.23744 16.1735 9.06912 15.1617 9.06912 15.1617V13.3561C9.06912 13.3561 8.69273 13.3956 7.97986 13.4751C7.26698 13.5546 6.8711 14.0108 6.8711 14.0108Z"
    fill="#C0130F" />
  <path
    d="M20.3168 17.4672H14.6932V15.887H15.7426V10.4674H13.8416V8.4672H15.7226L19.5051 10.667V15.9274H20.3168V17.4672ZM13.2081 17.2272C13.2081 17.2272 11.0695 18.1474 10.2772 17.6074C9.48499 17.0674 9.32673 16.307 9.32673 16.307C9.32673 16.307 7.84158 17.7773 6.61402 17.7773C5.38598 17.7773 4.33663 16.9474 4.01964 16.5072C3.70313 16.067 3.56531 16.007 3.48594 15.5069C3.40657 15.0072 3.48499 14.28 3.76253 13.8936C4.0396 13.5072 4.93069 12.8074 5.5642 12.6274C6.19818 12.4474 7.50511 12.4272 8.05925 12.4272C8.61386 12.4272 9.00974 12.4474 9.00974 12.4474C9.00974 12.4474 9.12855 11.447 8.67327 11.087C8.21798 10.727 7.3863 10.5874 6.65347 10.667C5.92063 10.7472 5.20776 10.9474 5.20776 10.9474L4.6137 9.26736C4.6137 9.26736 5.66353 8.4672 7.70281 8.4672C9.74257 8.4672 10.713 8.92704 11.089 9.28704C11.4653 9.64704 11.8612 10.5874 11.8612 11.5272V15.4272C11.8612 15.4272 12.6535 15.407 12.8911 15.3274C13.1287 15.2472 13.2081 15.2074 13.2081 15.2074V17.2272ZM17.5842 3.9672C18.6558 3.9672 19.5246 4.84464 19.5246 5.92704C19.5246 7.00992 18.6558 7.88736 17.5842 7.88736C16.5125 7.88736 15.6437 7.00992 15.6437 5.92704C15.6437 4.84464 16.5125 3.9672 17.5842 3.9672ZM20.198 0H3.80198C1.71089 0 0 1.728 0 3.84V20.16C0 22.272 1.71089 24 3.80198 24H20.198C22.2891 24 24 22.272 24 20.16V3.84C24 1.728 22.2891 0 20.198 0Z"
    fill="#C0130F" />
</svg>