<svg width="24" height="24" viewBox="0 0 24 24" fill="none" xmlns="http://www.w3.org/2000/svg">
  <rect width="24" height="24" rx="4" fill="white" />
  <path fill-rule="evenodd" clip-rule="evenodd"
    d="M19.6635 11.5414L19.4418 12.8072H16.7289L16.249 15.3952H14.5507L15.732 8.97168H20.1247L19.9034 10.2567H17.1901L16.9502 11.5414"
    fill="#113E74" />
  <path fill-rule="evenodd" clip-rule="evenodd"
    d="M6.06093 13.2904H7.44593L7.03207 11.8388L6.06093 13.2904ZM5.35936 14.5424L4.78393 15.3952H3.30908L7.53578 8.97168H7.67964L9.46035 15.3952H7.89564L7.67964 14.5424"
    fill="#113E74" />
  <path fill-rule="evenodd" clip-rule="evenodd"
    d="M14.641 8.97168H10.5356L10.2961 10.2527H11.5842L10.5723 15.3952H12.0445L13.1117 10.2527C13.5353 10.2527 13.9771 10.2527 14.4002 10.2527"
    fill="#113E74" />
  <path
    d="M20.9197 9.09986L21.0357 9.18827L21.145 9.28874L21.2499 9.40215L21.3508 9.52405L21.446 9.65488L21.5328 9.79732L21.6146 9.94333L21.6912 10.1023L21.7607 10.2635L21.8249 10.4358L21.8767 10.6122L21.9258 10.7926L21.9608 10.9792L21.9918 11.1726L22.013 11.3673L22.0228 11.5651V11.7669L22.0166 11.9714L21.9966 12.1768L21.9657 12.3804L21.9258 12.5863L21.874 12.7948L21.8085 12.9979L21.7324 13.202L21.6412 13.4056L21.5407 13.603L21.4248 13.8021L21.2968 13.9937L21.1552 14.183L20.9963 14.3687L20.8245 14.5465L20.6382 14.7175L20.1712 15.105L19.656 15.4716L19.104 15.8195L18.5083 16.1508L17.8815 16.4607L17.2259 16.7487L16.5412 17.0184L15.8365 17.2608L15.1084 17.485L14.3705 17.6855L13.6185 17.8583L12.8589 18.011L12.0967 18.136L11.3336 18.2342L10.578 18.3066L9.82689 18.3508L9.08858 18.3677L8.36753 18.3561L7.66507 18.3137L6.98607 18.2405L6.33496 18.1387L5.71439 18.0029L5.12746 17.835L4.58037 17.6377L4.07532 17.4024L3.61587 17.1367L3.20997 16.8326L2.85498 16.4937L2.55753 16.1195L2.32338 15.7065L2.15429 15.2564L2.05337 14.7697L2.01398 14.2522L2.02637 13.7534L2.0879 13.2725L2.19546 12.8104L2.34595 12.3701L2.53761 11.9446L2.76424 11.5356L3.03026 11.1476L3.32284 10.777L3.64862 10.4193L3.99919 10.0795L4.37189 9.754L4.76804 9.44635L5.18058 9.15299L5.6024 8.87392L6.04194 8.61003L6.48988 8.35864L6.94358 8.12333L7.39595 7.89873L7.85629 7.68798L8.30733 7.48928L8.75705 7.30621L9.19791 7.12939L9.62771 6.96864L10.0411 6.81504L10.4368 6.67394L10.8166 6.54311L11.1707 6.42255L11.5009 6.31226L11.8041 6.21001L12.0741 6.11714L12.307 6.03141L11.9263 6.71993L14.9318 5.09998L11.3628 5.32323L12.1605 5.66973L11.8657 5.7568L11.5545 5.85235L11.2238 5.95461L10.5192 6.18099L9.75961 6.4422L9.36169 6.5833L8.95933 6.73333L8.54503 6.89229L8.12408 7.05839L7.70181 7.23477L7.27511 7.41828L6.8462 7.61118L6.41906 7.81166L5.99502 8.02153L5.57053 8.2421L5.15313 8.46893L4.73971 8.71005L4.33072 8.95564L3.93766 9.21327L3.55124 9.4794L3.17899 9.75579L2.82001 10.0429L2.47432 10.3372L2.1481 10.6461L1.83648 10.9623L1.5439 11.2887L1.27744 11.6254L1.03089 11.9727L0.807362 12.3326L0.609948 12.7006L0.531602 12.8649L0.45724 13.0243L0.387304 13.181L0.323565 13.3377L0.263809 13.4931L0.211579 13.6472L0.164659 13.7963L0.121281 13.9432L0.0863134 14.0901L0.0575423 14.2375L0.034968 14.383L0.0163774 14.5232L0.0066395 14.6657L0 14.8032L0.00177056 14.9421L0.0101806 15.0818L0.0247875 15.2176L0.0429354 15.3502L0.0694934 15.4864L0.107117 15.6163L0.146511 15.7494L0.195201 15.8806L0.251858 16.0097L0.312941 16.1401L0.381107 16.2678L0.45724 16.3941L0.541783 16.5232L0.634736 16.6455L0.731672 16.7746L0.839232 16.8987L0.954759 17.0224L1.07516 17.1487L1.42395 17.4506L1.82852 17.7225L2.28 17.9663L2.78018 18.1784L3.32284 18.3624L3.90623 18.5173L4.52902 18.6481L5.1819 18.7504L5.8671 18.8232L6.58062 18.875L7.31185 18.9H8.07053L8.84336 18.8768L9.63125 18.8321L10.4271 18.7651L11.2323 18.6731L12.0436 18.5629L12.8554 18.432L13.6614 18.2824L14.4652 18.1137L15.2589 17.9221L16.0406 17.7185L16.8054 17.4961L17.5517 17.255L18.2772 17.0018L18.9783 16.729L19.6498 16.4437L20.2872 16.1463L20.8932 15.8315L21.4602 15.5082L21.9838 15.1689L22.4623 14.8211L22.6022 14.6929L22.7341 14.5576L22.862 14.4228L22.9859 14.2812L23.1037 14.1357L23.2121 13.9879L23.3152 13.8423L23.4144 13.6887L23.5029 13.5364L23.5879 13.3797L23.664 13.2243L23.734 13.0658L23.7955 12.9064L23.8499 12.7466L23.8946 12.5863L23.934 12.4295L23.9628 12.2683L23.9849 12.1089L23.9951 11.9513L24 11.7941L23.9942 11.6401L23.9792 11.4865L23.9544 11.3333L23.919 11.1833L23.8761 11.0373L23.8221 10.8913L23.7583 10.7497L23.6831 10.6122L23.5981 10.4783L23.5029 10.3488L23.394 10.2215L23.2763 10.0987L23.2143 10.0398L23.1528 9.98709L23.0891 9.93529L23.0266 9.88707L22.9607 9.84107L22.827 9.75579L22.7611 9.71962L22.6911 9.68345L22.623 9.64952L22.553 9.61916L22.4827 9.58969L22.3379 9.53387L22.1905 9.48163L22.0391 9.43698L21.8873 9.39188L21.7324 9.34812L21.5735 9.30392L21.4124 9.25882L21.2521 9.21015L21.087 9.15701"
    fill="#F36627" />
</svg>