<svg width="24" height="24" viewBox="0 0 24 24" fill="none" xmlns="http://www.w3.org/2000/svg">
  <rect width="24" height="24" rx="4" fill="white" />
  <path
    d="M12.4662 7.48256C13.0546 7.02438 13.6072 6.51819 14.1841 6.04474C17.4462 6.0491 20.7093 6.04365 23.9714 6.04801C22.2672 7.50328 20.5451 8.93565 18.8493 10.4029C18.1156 9.9131 17.3841 9.41783 16.6504 8.92692C17.3314 8.44474 18.0325 7.99638 18.7062 7.50328C18.4051 7.51528 18.063 7.44328 17.8083 7.65601C17.2841 8.02692 16.7672 8.40765 16.2409 8.7731C16.2388 8.35092 16.2388 7.92874 16.2388 7.50656C16.0788 7.50547 15.9199 7.50547 15.7599 7.50547C15.7577 8.49383 15.7588 9.48328 15.7599 10.4727C15.9188 10.4727 16.0788 10.4727 16.2388 10.4727C16.2388 10.0287 16.2388 9.58474 16.2398 9.14074C16.8093 9.53019 17.3704 9.93165 17.9356 10.3255C18.1693 10.5142 18.4756 10.4804 18.7535 10.4804C18.442 10.7302 18.1409 10.9909 17.8356 11.2473C17.383 11.1709 17.063 11.5342 16.7335 11.7862C16.2841 12.1407 15.8314 12.4909 15.3799 12.8411C15.3799 12.3131 15.3799 11.784 15.3788 11.2549C15.0914 11.256 14.8041 11.256 14.5177 11.2549C14.5156 12.1876 14.5188 13.1193 14.5156 14.052C14.3535 14.196 14.1872 14.3378 14.0462 14.5036C14.0493 14.1818 14.0704 13.8524 13.9914 13.5382C13.9262 13.3047 13.6862 13.2229 13.5114 13.0996C13.6872 12.9796 13.9472 12.9022 13.9851 12.6535C14.042 12.3087 14.0514 11.9389 13.9451 11.604C13.8125 11.2964 13.4472 11.2626 13.163 11.256C12.123 11.2506 11.083 11.2571 10.042 11.2571C10.043 12.5226 10.0451 13.7891 10.0409 15.0556C11.1472 15.0709 12.2546 15.0622 13.362 15.0622C12.183 16.0156 11.0388 17.0182 9.87985 17.9989L9.98932 18H0.0914307C1.86511 16.4662 3.66827 14.9706 5.44617 13.4433C5.44722 13.9833 5.44722 14.5233 5.44722 15.0633C5.72722 15.0622 6.00722 15.0622 6.28827 15.0622C6.28722 14.5822 6.28827 14.1033 6.28827 13.6233C6.56301 13.6342 6.84932 13.5851 7.11459 13.6702C7.63669 14.0727 8.04301 14.6171 8.56406 15.0218C8.96722 15.1146 9.38827 15.0491 9.79774 15.0589C9.24196 14.5822 8.6809 14.1109 8.12301 13.6364C8.54301 13.6026 9.21248 13.7335 9.37669 13.1924C9.44511 12.6655 9.47669 12.1058 9.34301 11.5876C9.07459 11.1338 8.46932 11.2855 8.0409 11.2506C8.63774 10.7476 9.22511 10.2327 9.83353 9.74292C10.2725 9.74292 10.7104 9.74401 11.1504 9.74183C11.2693 9.98183 11.3872 10.2218 11.5051 10.4618C11.6841 10.4673 11.863 10.4716 12.042 10.476C11.723 9.87383 11.3998 9.27492 11.0788 8.67492C11.4588 8.34656 11.8514 8.03347 12.2241 7.69747C12.2251 8.62256 12.2272 9.54765 12.2262 10.4727C12.3725 10.4727 12.5188 10.4727 12.6651 10.4727C12.6651 9.70692 12.6651 8.9411 12.6651 8.17638C13.4009 8.86038 14.1367 9.54438 14.8641 10.2393C15.0051 10.3887 15.1956 10.4618 15.3851 10.5229C15.3956 9.5171 15.3883 8.51238 15.3893 7.50656C15.243 7.50547 15.0977 7.50547 14.9514 7.50438C14.9504 8.25274 14.9535 9.0011 14.9493 9.74947C14.1125 9.00437 13.3251 8.19819 12.4662 7.48256Z"
    fill="#56E2E3" />
  <path
    d="M10.261 9.36328C10.4231 9.228 10.5863 9.09273 10.7484 8.95746C10.8168 9.09273 10.8863 9.22909 10.9547 9.36437C10.7231 9.36328 10.4915 9.36219 10.261 9.36328Z"
    fill="#56E2E3" />
  <path
    d="M7.19046 11.976C7.43783 11.8549 7.73362 11.9302 7.99994 11.9106C8.18731 11.9378 8.43994 11.8615 8.56941 12.0469C8.61783 12.3044 8.61678 12.5738 8.57152 12.8313C8.51046 12.9764 8.3431 12.9578 8.21783 12.972C7.57573 12.9851 6.93257 12.9698 6.28941 12.9753C6.28836 12.9153 6.28731 12.7975 6.28625 12.7386C6.58836 12.4855 6.88099 12.2204 7.19046 11.976Z"
    fill="#56E2E3" />
  <path
    d="M10.8916 12.7855C10.8811 12.4811 10.8842 12.1756 10.8937 11.8713C11.5811 11.8909 12.2695 11.8527 12.9568 11.8876C13.3053 11.8658 13.2358 12.3098 13.2232 12.5433C13.2295 12.7582 13.0021 12.7789 12.8453 12.7789C12.1947 12.7931 11.5432 12.7735 10.8916 12.7855Z"
    fill="#56E2E3" />
  <path
    d="M10.8799 13.4215C11.5704 13.4084 12.262 13.3942 12.9525 13.4215C13.3104 13.3953 13.263 13.8469 13.243 14.0902C13.2588 14.2626 13.1041 14.3771 12.9504 14.3695C12.262 14.3978 11.5725 14.3716 10.8841 14.3782C10.8841 14.0596 10.883 13.74 10.8799 13.4215Z"
    fill="#56E2E3" />
  <path
    d="M5.44624 7.50546C6.2273 7.51091 7.0094 7.49455 7.79046 7.50982C8.01256 7.50437 8.2873 7.59273 8.33151 7.85346C8.39151 8.23746 8.45782 8.87018 7.93782 8.916C8.45467 9.06327 8.43361 9.69818 8.33361 10.1356C8.20835 10.4302 7.85782 10.464 7.5873 10.4705C6.87361 10.4793 6.15993 10.4695 5.44519 10.4727C5.44519 9.48327 5.44519 8.49491 5.44624 7.50546ZM5.92519 7.90364C5.92519 8.17637 5.92414 8.44909 5.92309 8.72182C6.53572 8.70328 7.15361 8.76873 7.76203 8.69128C7.9494 8.508 7.97888 7.84582 7.57993 7.90691C7.02835 7.89273 6.47677 7.91018 5.92519 7.90364ZM5.93677 10.0724C6.55045 10.0342 7.17361 10.1215 7.78098 10.0244C7.96309 9.816 7.95045 9.37309 7.78624 9.14837C7.17361 9.05891 6.5494 9.13855 5.93256 9.10582C5.91887 9.42764 5.92519 9.75055 5.93677 10.0724Z"
    fill="#323031" />
  <path
    d="M9.92417 7.51961C10.0979 7.51198 10.2705 7.50434 10.4442 7.4967C10.6579 7.88834 10.8684 8.28107 11.0789 8.67489C11.4 9.27489 11.7231 9.87379 12.0421 10.476C11.8631 10.4716 11.6842 10.4672 11.5052 10.4618C11.3873 10.2218 11.2694 9.98179 11.1505 9.74179C10.7105 9.74398 10.2726 9.74289 9.83364 9.74289C9.62522 9.74289 9.41785 9.74398 9.21049 9.74507C9.08943 9.98834 8.96838 10.2305 8.84733 10.4727C8.69154 10.4727 8.5347 10.4716 8.37891 10.4716C8.89154 9.48543 9.41996 8.50907 9.92417 7.51961ZM9.4147 9.35016C9.6968 9.35998 9.97891 9.36543 10.261 9.36325C10.4915 9.36216 10.7231 9.36325 10.9547 9.36434C10.8863 9.22907 10.8168 9.0927 10.7484 8.95743C10.5621 8.5887 10.3757 8.21998 10.1852 7.85343C9.91996 8.34761 9.67785 8.85489 9.4147 9.35016Z"
    fill="#323031" />
  <path
    d="M12.2327 7.51854C12.2906 7.50982 12.4074 7.49127 12.4663 7.48254C13.3253 8.19818 14.1127 9.00436 14.9495 9.74945C14.9537 9.00109 14.9506 8.25273 14.9516 7.50436C15.0979 7.50545 15.2432 7.50545 15.3895 7.50654C15.3885 8.51236 15.3958 9.51709 15.3853 10.5229C15.1958 10.4618 15.0053 10.3887 14.8642 10.2393C14.1369 9.54436 13.4011 8.86036 12.6653 8.17636C12.6653 8.94109 12.6653 9.70691 12.6653 10.4727C12.519 10.4727 12.3727 10.4727 12.2263 10.4727C12.2274 9.54764 12.2253 8.62254 12.2242 7.69745C12.2263 7.65273 12.2306 7.56327 12.2327 7.51854Z"
    fill="#323031" />
  <path
    d="M15.76 7.50548C15.92 7.50548 16.079 7.50548 16.239 7.50657C16.239 7.92875 16.239 8.35093 16.2411 8.77311C16.7674 8.40766 17.2842 8.02693 17.8084 7.65602C18.0632 7.4433 18.4053 7.5153 18.7063 7.5033C18.0326 7.99639 17.3316 8.44475 16.6505 8.92693C17.3842 9.41784 18.1158 9.91311 18.8495 10.4029C18.8253 10.4226 18.7768 10.4618 18.7537 10.4804C18.4758 10.4804 18.1695 10.5142 17.9358 10.3255C17.3705 9.93166 16.8095 9.5302 16.24 9.14075C16.239 9.58475 16.239 10.0287 16.239 10.4727C16.079 10.4727 15.919 10.4727 15.76 10.4727C15.759 9.4833 15.7579 8.49384 15.76 7.50548Z"
    fill="#323031" />
  <path
    d="M5.44839 11.2549C6.3126 11.2538 7.17681 11.2593 8.04102 11.2505C8.46945 11.2855 9.07471 11.1338 9.34313 11.5876C9.47681 12.1058 9.44524 12.6655 9.37681 13.1924C9.2126 13.7335 8.54313 13.6026 8.12313 13.6364C8.68102 14.1109 9.24208 14.5822 9.79787 15.0589C9.38839 15.0491 8.96734 15.1146 8.56418 15.0218C8.04313 14.6171 7.63681 14.0727 7.11471 13.6702C6.84945 13.5851 6.56313 13.6342 6.28839 13.6233C6.28839 14.1033 6.28734 14.5822 6.28839 15.0622C6.00734 15.0622 5.72734 15.0622 5.44734 15.0633C5.44734 14.5233 5.44734 13.9833 5.44629 13.4433C5.44734 12.7146 5.44629 11.9847 5.44839 11.2549ZM6.29366 11.9127C6.28945 12.1876 6.28734 12.4636 6.28629 12.7386C6.28734 12.7975 6.28839 12.9153 6.28945 12.9753C6.9326 12.9698 7.57576 12.9851 8.21787 12.972C8.34313 12.9578 8.5105 12.9764 8.57155 12.8313C8.61681 12.5738 8.61787 12.3044 8.56945 12.0469C8.43997 11.8615 8.18734 11.9378 7.99997 11.9106C7.73366 11.9302 7.43787 11.8549 7.1905 11.976L7.26418 11.9182C6.93997 11.9138 6.61681 11.9138 6.29366 11.9127Z"
    fill="#323031" />
  <path
    d="M10.0421 11.2571C11.0831 11.2571 12.1231 11.2506 13.1631 11.256C13.4473 11.2626 13.8126 11.2964 13.9452 11.604C14.0515 11.9389 14.0421 12.3087 13.9852 12.6535C13.9473 12.9022 13.6873 12.9797 13.5115 13.0997C13.6863 13.2229 13.9263 13.3047 13.9915 13.5382C14.0705 13.8524 14.0494 14.1818 14.0463 14.5037C13.9284 14.8135 13.6526 14.9684 13.3621 15.0622C12.2547 15.0622 11.1473 15.0709 10.041 15.0557C10.0452 13.7891 10.0431 12.5226 10.0421 11.2571ZM10.8915 12.7855C11.5431 12.7735 12.1947 12.7931 12.8452 12.7789C13.0021 12.7789 13.2294 12.7582 13.2231 12.5433C13.2358 12.3098 13.3052 11.8658 12.9568 11.8877C12.2694 11.8527 11.581 11.8909 10.8936 11.8713C10.8842 12.1757 10.881 12.4811 10.8915 12.7855ZM10.88 13.4215C10.8831 13.74 10.8842 14.0597 10.8842 14.3782C11.5726 14.3717 12.2621 14.3978 12.9505 14.3695C13.1042 14.3771 13.2589 14.2626 13.2431 14.0902C13.2631 13.8469 13.3105 13.3953 12.9526 13.4215C12.2621 13.3942 11.5705 13.4084 10.88 13.4215Z"
    fill="#323031" />
  <path
    d="M14.5179 11.2549C14.8042 11.256 15.0915 11.256 15.3789 11.2549C15.38 11.784 15.38 12.3131 15.38 12.8411C15.8315 12.4909 16.2842 12.1407 16.7336 11.7862C17.0631 11.5342 17.3831 11.1709 17.8357 11.2473C18.1073 11.2495 18.3778 11.2549 18.6494 11.2582C17.841 11.856 17.0294 12.4516 16.221 13.0516C17.1284 13.7215 18.0389 14.3847 18.9431 15.0589C18.4715 15.0349 17.9778 15.1375 17.521 15.0022C16.7905 14.4916 16.1 13.9189 15.38 13.3909C15.3789 13.9484 15.38 14.5058 15.3789 15.0622C15.0915 15.0622 14.8042 15.0622 14.5179 15.0633C14.5168 14.7262 14.5157 14.3891 14.5157 14.052C14.5189 13.1193 14.5157 12.1876 14.5179 11.2549Z"
    fill="#323031" />
</svg>