<svg width="24" height="24" viewBox="0 0 24 24" fill="none" xmlns="http://www.w3.org/2000/svg">
  <rect width="24" height="24" rx="4" fill="white" />
  <path fill-rule="evenodd" clip-rule="evenodd"
    d="M9.1129 2.86155C10.3961 0.646166 13.6039 0.646166 14.8871 2.86155L23.5484 17.8154C24.8315 20.0308 23.2276 22.8 20.6613 22.8H3.3387C0.772393 22.8 -0.831549 20.0308 0.451615 17.8154L9.1129 2.86155ZM10.4275 4.52309C11.4968 2.67695 14.17 2.67695 15.2393 4.52309L22.0962 16.3615C23.1655 18.2077 21.8289 20.5154 19.6903 20.5154H5.97659C3.83798 20.5154 2.50137 18.2077 3.57067 16.3615L10.4275 4.52309ZM12.5011 7.0154C13.1427 5.9077 14.7466 5.9077 15.3882 7.0154L19.9595 14.9077C20.601 16.0154 19.7991 17.4 18.5159 17.4H9.37345C8.09029 17.4 7.28832 16.0154 7.9299 14.9077L12.5011 7.0154ZM13.399 9.36924C13.8268 8.63079 14.896 8.63079 15.3238 9.36924L17.7297 13.5231C18.1574 14.2615 17.6227 15.1846 16.7673 15.1846H11.9555C11.1001 15.1846 10.5654 14.2615 10.9931 13.5231L13.399 9.36924Z"
    fill="#DAAB6B" />
</svg>