<svg width="24" height="24" viewBox="0 0 24 24" fill="none" xmlns="http://www.w3.org/2000/svg">
  <rect width="24" height="24" rx="4" fill="white" />
  <path
    d="M10.4771 23.7101C10.9622 23.9025 11.4787 23.9992 11.9968 24C12.5149 24 13.033 23.905 13.5197 23.7126C19.1158 20.4138 23.7047 12.2859 24 5.69415C23.6758 0.325624 15.8327 -0.0229168 12 0.00103569C8.24618 -0.0229168 0.316975 0.442907 0 5.69663C0.296862 12.2859 4.88335 20.4105 10.4771 23.7101Z"
    fill="#FB255B" />
  <path
    d="M12.2671 0.391804C12.1335 0.391804 12.004 0.391804 11.8769 0.39263C11.7852 0.39263 11.6902 0.391804 11.5937 0.391804C7.90586 0.391804 0.777941 0.849368 0.481079 5.57037C0.615431 8.43881 1.33144 11.5369 3.06274 14.4417C6.35075 9.13837 23.7458 5.58276 22.8077 3.82023C20.9598 0.683356 15.6066 0.391804 12.2671 0.391804Z"
    fill="#EB7A8C" />
  <path
    d="M11.956 18.5406L11.9842 18.5084C14.5063 15.6722 16.4741 13.4587 18.9963 10.6233C19.7766 9.74617 20.302 9.27374 19.5683 8.35779L18.0397 6.45072L14.2931 5.45631H11.956H9.61975L5.87317 6.45072C5.29876 7.1668 4.88926 7.67723 4.31565 8.39331C3.7702 9.07222 4.27221 9.87254 4.84984 10.5225L11.9287 18.5084L11.956 18.5406Z"
    fill="white" />
  <path
    d="M17.9493 6.77944C17.148 7.35345 16.1455 7.60288 15.1277 7.82341C15.6555 7.7755 15.9306 7.75073 16.4592 7.702C16.8036 7.67061 17.0691 7.62601 17.3105 7.87709L18.4763 9.08295C18.2398 8.64273 18.0032 8.20168 17.7667 7.76064C17.6194 7.4856 17.6146 7.49304 17.7474 7.21057C17.8149 7.06768 17.8825 6.92315 17.9493 6.77944Z"
    fill="#FC255C" />
  <path
    d="M5.66467 10.2299C6.28816 10.3719 6.38792 10.3942 7.01141 10.5363C7.42091 10.6288 8.06853 10.5404 8.25277 10.1547L8.92051 8.75723C8.86258 9.71118 8.36137 10.8658 9.42976 11.0855L11.3927 11.7892C10.5384 11.7198 9.75558 11.4844 9.4008 11.6926C8.98326 11.9362 9.23426 12.3393 9.35896 12.6366L11.1088 16.8001C9.99693 14.713 9.0267 13.1057 7.63088 11.7388C7.0629 11.1838 6.39919 10.7948 5.66467 10.2299Z"
    fill="#FC255C" />
  <path
    d="M5.96352 6.77944C6.65786 7.29564 7.71587 7.56407 8.78595 7.82341C8.24447 7.77468 7.703 7.72512 7.16233 7.67557C6.82682 7.64501 6.82762 7.64501 6.58947 7.89113L5.43652 9.08295C5.68916 8.61217 5.94099 8.14056 6.19443 7.66896C6.29661 7.47982 6.29339 7.48725 6.20328 7.29234C6.12282 7.12137 6.04236 6.95123 5.96352 6.77944Z"
    fill="#FC255C" />
  <path
    d="M11.9782 10.6179L11.9533 10.7269L11.934 10.6179C11.831 10.1215 11.7272 9.62432 11.6234 9.12793C11.5027 8.54483 11.5494 8.55722 10.9951 8.3846C10.5092 8.23263 10.0241 8.08148 9.53894 7.93117C11.1504 8.21694 12.7618 8.21694 14.3732 7.93117C12.1455 8.62494 12.4657 8.27475 11.9782 10.6179Z"
    fill="#FC255C" />
  <path
    d="M18.4258 10.2299C17.8015 10.372 17.7033 10.3943 17.079 10.5363C16.6695 10.6288 16.0219 10.5405 15.8377 10.1548L15.1707 8.75729C15.2279 9.71124 15.7299 10.8659 14.6615 11.0856L12.6985 11.7893C13.5521 11.7199 14.3349 11.4845 14.6896 11.6926C15.1072 11.9363 14.8562 12.3393 14.7315 12.6367L12.9817 16.8002C14.0935 14.7131 15.0645 13.1058 16.4596 11.7389C17.0275 11.1839 17.6913 10.7949 18.4258 10.2299Z"
    fill="#FC255C" />
</svg>