<svg width="24" height="24" viewBox="0 0 24 24" fill="none" xmlns="http://www.w3.org/2000/svg">
  <rect width="24" height="24" rx="4" fill="white" />
  <path
    d="M23.9229 10.7154C23.861 10.5863 23.7639 10.4774 23.643 10.4013C23.5221 10.3252 23.3822 10.285 23.2395 10.2853H21.1865C20.9998 10.2858 20.8199 10.3562 20.682 10.4827C20.0977 11.0422 19.4027 11.472 18.6423 11.744C17.8818 12.0161 17.0729 12.1244 16.268 12.0619C13.2882 11.8674 11.065 9.61944 11.0973 6.82642C11.115 5.81179 11.5302 4.84507 12.2527 4.13582C12.9752 3.42658 13.9468 3.03198 14.957 3.03756C15.3864 3.04476 15.8095 3.14235 16.199 3.32403C16.5885 3.50571 16.9357 3.76744 17.2183 4.09232C17.3528 4.25114 17.4653 4.42756 17.5526 4.61674C17.6056 4.7724 17.6056 4.94132 17.5526 5.09698C17.4838 5.27698 17.3509 5.42488 17.1796 5.51198C17.0084 5.59908 16.811 5.61918 16.6258 5.56838C16.1476 5.39181 15.6228 5.38965 15.1431 5.56229C14.6635 5.73492 14.2594 6.07136 14.0016 6.51284C13.7438 6.95432 13.6486 7.47276 13.7326 7.97759C13.8166 8.48242 14.0746 8.94154 14.4613 9.27474C14.4908 9.31125 14.5266 9.34219 14.5669 9.36607L14.6139 9.39553L14.6373 9.41321C14.6618 9.44227 14.6917 9.46628 14.7253 9.48392C15.26 9.78494 15.8591 9.95202 16.4718 9.971C17.0844 9.98997 17.6926 9.86029 18.2448 9.59293C18.9033 9.24915 19.4697 8.75102 19.896 8.14073C20.3223 7.53044 20.596 6.82595 20.6938 6.08691C20.7966 5.38181 20.7449 4.66266 20.5422 3.97973C20.3396 3.29679 19.9909 2.66656 19.5206 2.13307C18.9571 1.4751 18.2611 0.944734 17.4784 0.577029C16.6958 0.209324 15.8444 0.0126485 14.9805 0L14.9013 0C13.103 0.00673139 11.3792 0.721887 10.1003 1.99176C8.82134 3.26163 8.08939 4.98486 8.06175 6.79106C8.05399 7.5189 8.14477 8.24443 8.33158 8.94771C8.1996 8.93297 8.06762 8.91824 7.93564 8.9094C4.89128 8.71201 2.18714 9.95826 0.169307 12.4714C0.0792108 12.5832 0.022385 12.7182 0.00537917 12.861C-0.0116266 13.0038 0.01188 13.1485 0.0731895 13.2784C0.134499 13.4084 0.231116 13.5183 0.351904 13.5955C0.472691 13.6727 0.612733 13.714 0.755888 13.7147H2.80892C2.99662 13.7147 3.17755 13.6443 3.31631 13.5173C3.90135 12.9553 4.59816 12.5241 5.36094 12.2519C6.12372 11.9797 6.93521 11.8728 7.74206 11.9381C10.7219 12.1326 12.945 14.3806 12.9128 17.1736C12.8958 18.1885 12.4809 19.1556 11.7583 19.865C11.0356 20.5744 10.0635 20.9688 9.05307 20.9624C8.62397 20.9552 8.20112 20.8579 7.81169 20.6768C7.42225 20.4957 7.07485 20.2347 6.7918 19.9106C6.65589 19.7506 6.5415 19.5733 6.45159 19.3833C6.40014 19.2274 6.40014 19.0589 6.45159 18.903C6.52038 18.7237 6.65285 18.5762 6.82345 18.4892C6.99405 18.4021 7.19069 18.3816 7.37545 18.4316H7.39305C7.87096 18.6104 8.39622 18.6146 8.87692 18.4436C9.35762 18.2726 9.76314 17.9372 10.0225 17.4961C10.2819 17.0551 10.3786 16.5364 10.2958 16.0309C10.2129 15.5255 9.95574 15.0654 9.56926 14.7312C9.5425 14.6951 9.50853 14.665 9.46955 14.6428L9.41969 14.6104L9.38449 14.5927C9.35939 14.5642 9.32964 14.5403 9.2965 14.522C8.76155 14.2214 8.16234 14.0548 7.54968 14.0364C6.93701 14.0179 6.32895 14.1481 5.77702 14.4159C5.11792 14.7582 4.55099 15.2556 4.12456 15.8655C3.69814 16.4755 3.42487 17.18 3.32804 17.919C3.22347 18.6228 3.27266 19.341 3.47221 20.0238C3.67176 20.7066 4.01689 21.3375 4.48361 21.8728C5.04745 22.5284 5.74289 23.0568 6.52433 23.4234C7.30577 23.79 8.15553 23.9865 9.01788 24H9.0912C10.8869 23.9941 12.6087 23.2811 13.8869 22.0142C15.1651 20.7472 15.8979 19.0273 15.9278 17.2237C15.9351 16.496 15.8453 15.7707 15.6609 15.067C15.7929 15.067 15.9219 15.0994 16.0539 15.1053C16.2592 15.1201 16.4645 15.126 16.6669 15.126C19.4649 15.126 21.9461 13.8856 23.8232 11.5433C23.9173 11.4296 23.9768 11.291 23.9945 11.1441C24.0121 10.9973 23.9873 10.8485 23.9229 10.7154Z"
    fill="#0CAFC0" />
</svg>