<svg width="24" height="24" viewBox="0 0 24 24" fill="none" xmlns="http://www.w3.org/2000/svg">
  <rect width="24" height="24" rx="4" fill="white" />
  <path
    d="M2.11761 12L12.0023 21.8829L21.8866 12L12.0023 2.11755L2.11761 12ZM5.01234 16.3093L4.0139 15.3111L0.705872 12.0021L4.0139 8.69356L5.01234 7.69534V5.0133H7.69373L12.0002 0.705709L15.3078 4.01467L16.3063 5.01289H18.9881V7.69492L19.9861 8.69356L23.2941 12.0021L19.9861 15.3106L18.9881 16.3093V18.9917H16.3063L15.3078 19.9904L12.0002 23.2989L8.69218 19.9904L7.69373 18.9917H5.01234V16.3093ZM11.9998 0L7.9863 4.01383H4.0139V7.98659L0 11.9996L4.0139 16.0138V19.9862H7.9863L12.0002 24L16.0137 19.9862H19.9861V16.0134L24 11.9996L19.9861 7.98575V4.01341H16.0137L11.9998 0Z"
    fill="#00805F" />
  <path
    d="M0.704224 11.9983L5.01029 7.69199V5.01038H7.69209L11.9981 0.704041L16.3042 5.01038H18.986V7.69241L23.2929 11.9979L18.9864 16.3042V18.9863H16.3046L11.9986 23.2926L7.69251 18.9863H5.0107V16.3042L0.704224 11.9983ZM5.00903 14.8911C6.67646 12.8809 9.19018 11.5981 11.9952 11.5977C14.1602 11.5977 15.9257 9.83217 15.9257 7.66685C15.9257 6.64432 15.5321 5.71064 14.8887 5.00996L11.9952 2.11588L9.10131 5.01038L5.00945 9.10299L2.11597 11.9975L5.00945 14.8916L5.00903 14.8911ZM18.986 9.1055C17.3186 11.1158 14.804 12.3985 11.9981 12.3985C9.83233 12.399 8.0664 14.1649 8.0664 16.3302C8.0664 17.3528 8.46042 18.286 9.10425 18.9867H9.10341L11.9981 21.8808L14.8929 18.9867L18.986 14.8937L21.8808 11.9996L18.986 9.1055Z"
    fill="#FAAE17" />
</svg>