<svg width="24" height="24" viewBox="0 0 24 24" fill="none" xmlns="http://www.w3.org/2000/svg">
  <rect width="24" height="24" rx="4" fill="white" />
  <path fill-rule="evenodd" clip-rule="evenodd"
    d="M15.9078 15.5648C16.5854 15.2214 17.0129 14.5269 17.0141 13.7672V3.9714L14.1102 5.4262C13.4308 5.76751 13.0025 6.46352 13.0039 7.22377V17.0142L15.9078 15.5648ZM9.88984 18.5738C10.5665 18.2323 10.9941 17.5398 10.9961 16.7817L10.9906 12.5006L8.08666 13.9497C7.40909 14.2931 6.98162 14.9879 6.98041 15.7475V20.0229L9.88984 18.5738ZM3.26896 0H20.7255C22.5306 0.00292969 23.9939 1.46401 24 3.2689V20.7254C23.997 22.5326 22.5327 23.9969 20.7255 24H3.26896C1.46267 23.9969 0 22.5318 0 20.7254V3.2689C0.0030474 1.46484 1.46483 0.00313895 3.26896 0Z"
    fill="#F05323" />
</svg>