<svg width="24" height="24" viewBox="0 0 24 24" fill="none" xmlns="http://www.w3.org/2000/svg">
  <rect width="24" height="24" rx="4" fill="white" />
  <path fill-rule="evenodd" clip-rule="evenodd"
    d="M10.4463 0.0367463C8.8338 0.242263 6.88454 0.965176 5.45623 1.88743C3.62972 3.06673 2.15588 4.74647 1.18324 6.75713C0.375598 8.42686 0.069668 9.69296 0.0125072 11.6028C-0.0150766 12.5232 0.000933755 12.9799 0.0809204 13.552C0.409547 15.9034 1.35447 18.0197 2.8557 19.7665C3.31086 20.2961 4.28665 21.2248 4.7132 21.5344L5.00125 21.7435L5.09751 21.4001C5.36074 20.4606 5.42363 19.9041 5.42241 18.5226C5.42112 17.0469 5.37476 16.6496 5.05456 15.3713C4.88526 14.6952 4.85099 14.434 4.85016 13.8119C4.84926 13.1638 4.8762 12.9699 5.0534 12.35C5.35515 11.2944 5.37907 11.151 5.45398 9.95124C5.52432 8.82457 5.63433 8.17722 5.81565 7.82285C5.8723 7.7122 6.14589 7.3779 6.42359 7.07992C7.00709 6.45395 7.04895 6.33199 6.93199 5.59927C6.78295 4.66577 6.94749 4.16923 7.60789 3.55931C8.10054 3.10429 8.6022 2.86576 9.06656 2.86576C9.48507 2.86576 9.65225 2.97564 9.7665 3.32559C9.86726 3.6341 9.70902 4.14402 9.34645 4.67922C9.01132 5.17375 8.76043 5.64833 8.69961 5.90244C8.62959 6.19516 8.77934 6.43271 9.38862 6.99546C9.9149 7.48147 9.99122 7.58387 10.2752 8.18431C10.4462 8.5457 10.7057 9.18895 10.8519 9.61389C10.9981 10.0388 11.167 10.4705 11.227 10.5733C11.4944 11.0308 12.191 11.2788 13.2016 11.2763C13.9992 11.2743 14.2836 11.2108 14.9504 10.8858C15.4942 10.6208 15.9019 10.2389 15.981 9.92044C16.0031 9.83136 15.9597 9.55301 15.8822 9.28654C15.6792 8.58936 15.698 8.29886 15.9813 7.75398C16.4359 6.87987 17.1087 6.37228 17.8128 6.37228C18.3905 6.37228 18.7052 6.70086 18.6114 7.20624C18.59 7.32157 18.3886 7.75125 18.1638 8.16111C17.702 9.00338 17.5788 9.32982 17.6358 9.5595C17.7268 9.92616 18.5288 9.65469 19.4053 8.9605C19.9098 8.5609 20.2389 8.17898 20.6627 7.50116C20.9678 7.01319 21.2409 6.82678 21.5618 6.8876C21.873 6.94659 22.0707 7.24392 22.0647 7.6441C22.0556 8.25506 21.7669 8.69001 20.2999 10.3033C19.5463 11.132 19.1169 11.6807 18.9083 12.0818C18.7515 12.3833 18.7363 12.4732 18.7489 13.0267C18.7723 14.0613 19.022 15.2898 19.4498 16.4759C19.7542 17.3196 20.4769 18.7695 20.872 19.329L21.1678 19.7479L21.4093 19.4729C22.0864 18.7019 22.99 17.0422 23.4208 15.7785C23.5455 15.4127 23.7258 14.7256 23.8216 14.2516C23.9771 13.4822 23.9962 13.2429 23.9999 12.0251C24.0054 10.2141 23.8242 9.18668 23.2262 7.63929C21.7478 3.8131 18.4688 1.04958 14.3615 0.168191C13.8492 0.0582533 13.4311 0.0251162 12.304 0.00523382C11.526 -0.00847593 10.69 0.00568819 10.4463 0.0367463ZM11.3395 13.001C10.862 13.2433 10.5521 13.8506 10.4041 14.8338C10.3571 15.146 10.3418 16.3983 10.3582 18.5699C10.3794 21.347 10.3998 21.9168 10.4942 22.3733C10.6899 23.3188 10.9192 23.6753 11.4919 23.9245C11.9979 24.1446 14.6057 23.8466 15.159 23.5054C15.6845 23.1814 15.7128 23.1021 15.7043 21.9774C15.7002 21.4353 15.6479 20.5823 15.588 20.082C15.4438 18.8773 14.9996 15.8631 14.87 15.2089C14.623 13.9635 14.0244 13.3236 12.8091 13.0057C12.3059 12.874 11.5941 12.8717 11.3395 13.001ZM7.42471 17.5967C7.19195 17.9666 7.09666 18.7345 7.09621 20.2445C7.09582 21.736 7.18828 22.5261 7.415 22.9688C7.51788 23.1696 8.06499 23.4022 8.18927 23.298C8.42004 23.1044 8.47026 21.904 8.31967 20.1795C8.13674 18.0843 7.77494 17.0402 7.42471 17.5967ZM17.4914 17.7486C17.278 17.8997 17.1974 18.3132 17.201 19.2374C17.2058 20.4666 17.5031 21.9572 17.804 22.2613C17.964 22.423 18.0795 22.3789 18.8278 21.8705C19.5834 21.357 19.6341 21.2233 19.3823 20.407C19.0372 19.2886 18.2648 17.985 17.8046 17.7446C17.6507 17.6642 17.61 17.6647 17.4914 17.7486Z"
    fill="#F14635" />
</svg>