<svg width="24" height="24" viewBox="0 0 24 24" fill="none" xmlns="http://www.w3.org/2000/svg">
  <g clip-path="url(#clip0_1286_7724)">
    <path
      d="M8.54992 11.864H8.72014C8.9203 11.874 9.12086 11.8558 9.31593 11.8098C9.41901 11.7752 9.51164 11.7151 9.58519 11.635C9.65402 11.5627 9.70259 11.4736 9.72601 11.3765C9.74039 11.3255 9.73767 11.2711 9.71827 11.2218C9.69781 11.1798 9.66169 11.1476 9.61769 11.132C9.50608 11.1068 9.39147 11.0974 9.27724 11.1042H8.87953L8.54992 11.864ZM7.91854 13.3388H7.36609L8.51123 10.6523H9.59448C9.75228 10.6424 9.91041 10.6656 10.0587 10.7204C10.1084 10.7418 10.1534 10.773 10.1908 10.8121C10.2283 10.8511 10.2576 10.8973 10.2769 10.9479C10.3201 11.0693 10.3255 11.2009 10.2924 11.3255C10.2607 11.4662 10.2047 11.6002 10.1268 11.7216C10.0568 11.8381 9.96846 11.9426 9.86529 12.0311C9.77961 12.1033 9.68364 12.1622 9.58055 12.206C9.45982 12.251 9.33407 12.2811 9.20606 12.2957C9.04301 12.3111 8.87924 12.3173 8.7155 12.3143H8.35648L7.91854 13.3388Z"
      fill="#0157A5" />
    <path
      d="M10.8231 12.2741C10.8011 12.3518 10.7956 12.4333 10.8071 12.5133C10.8185 12.5932 10.8467 12.6699 10.8896 12.7383C10.9355 12.8019 10.9972 12.8525 11.0685 12.8851C11.1399 12.9176 11.2185 12.931 11.2966 12.924C11.4629 12.9176 11.624 12.8639 11.7609 12.7693C11.9377 12.6527 12.0875 12.4997 12.2004 12.3205C12.3235 12.1435 12.4127 11.9451 12.4634 11.7355C12.4896 11.6527 12.4978 11.5653 12.4874 11.4791C12.477 11.3929 12.4482 11.3099 12.4031 11.2357C12.3554 11.1759 12.2933 11.1291 12.2227 11.0996C12.1521 11.0701 12.0753 11.0589 11.9992 11.067C11.8556 11.0721 11.7148 11.1086 11.5868 11.1738C11.4587 11.239 11.3465 11.3315 11.2579 11.4446C11.0433 11.6792 10.8934 11.9656 10.8231 12.2756V12.2741ZM10.2722 12.2864C10.3125 12.1123 10.3733 11.9434 10.4532 11.7835C10.5597 11.5565 10.7012 11.3476 10.8726 11.1645C11.0383 10.9938 11.2346 10.8557 11.4514 10.7575C11.6692 10.6552 11.907 10.6024 12.1477 10.6028C12.2866 10.5916 12.426 10.6139 12.5545 10.6677C12.6829 10.7216 12.7965 10.8054 12.8859 10.9123C12.9677 11.0311 13.0215 11.1668 13.0435 11.3094C13.0655 11.4519 13.055 11.5976 13.0128 11.7355C12.9441 12.0333 12.8145 12.3136 12.6321 12.5588C12.4555 12.8134 12.2239 13.025 11.9543 13.1778C11.7016 13.318 11.4169 13.3905 11.1279 13.3883C10.9168 13.4 10.708 13.34 10.5353 13.218C10.3972 13.1148 10.3019 12.9645 10.2675 12.7956C10.2323 12.6277 10.2323 12.4543 10.2675 12.2864"
      fill="#0157A5" />
    <path
      d="M13.0609 12.4737L13.5916 12.4458C13.5588 12.5566 13.5632 12.6751 13.604 12.7832C13.6639 12.8781 13.8026 12.9255 14.0203 12.9255C14.1651 12.9349 14.3095 12.9009 14.435 12.828C14.521 12.7753 14.5827 12.6908 14.6068 12.5928C14.6154 12.5569 14.6143 12.5194 14.6037 12.4841C14.5931 12.4488 14.5734 12.4169 14.5464 12.3916C14.4431 12.3108 14.329 12.2447 14.2075 12.1951C14.0657 12.131 13.9295 12.0549 13.8006 11.9676C13.719 11.9089 13.6578 11.8261 13.6257 11.7309C13.5916 11.6208 13.5889 11.5035 13.6179 11.392C13.6679 11.1648 13.7995 10.9638 13.9878 10.8271C14.2107 10.6685 14.4805 10.5895 14.7538 10.6028C15.0695 10.6028 15.2975 10.6765 15.4378 10.824C15.5087 10.9032 15.5598 10.9981 15.5867 11.1009C15.6136 11.2037 15.6156 11.3114 15.5925 11.4152L15.0587 11.4384C15.0692 11.3867 15.0679 11.3333 15.0551 11.2822C15.0422 11.231 15.0181 11.1834 14.9844 11.1428C14.9392 11.1044 14.8867 11.0755 14.8301 11.0579C14.7734 11.0404 14.7138 11.0345 14.6548 11.0407C14.5348 11.0325 14.4151 11.0605 14.3112 11.1212C14.2389 11.168 14.1878 11.2413 14.1689 11.3254C14.1595 11.3588 14.159 11.3941 14.1674 11.4277C14.1758 11.4614 14.1929 11.4923 14.2168 11.5173C14.3231 11.6041 14.4414 11.675 14.5681 11.7278C14.7594 11.8033 14.9352 11.9134 15.0865 12.0527C15.1357 12.12 15.1685 12.1979 15.1822 12.2801C15.1959 12.3624 15.1902 12.4467 15.1654 12.5263C15.107 12.7733 14.9593 12.9899 14.7507 13.1344C14.5081 13.3084 14.215 13.3976 13.9166 13.3882C13.7183 13.3953 13.5211 13.3555 13.3409 13.2722C13.2728 13.2417 13.212 13.1971 13.1623 13.1413C13.1127 13.0856 13.0755 13.0199 13.0531 12.9487C13.0119 12.7931 13.0119 12.6293 13.0531 12.4737"
      fill="#0157A5" />
    <path
      d="M16.4607 13.3387H15.9082L16.8661 11.1026H16.0784L16.2672 10.6523H18.3826L18.1954 11.1026H17.4186L16.4607 13.3387Z"
      fill="#0157A5" />
    <path d="M17.533 12.8312H18.0545L17.8425 13.3388H17.321L17.533 12.8312Z" fill="#0157A5" />
    <path
      d="M18.3455 13.3387L19.4952 10.6523H20.0477L19.5587 11.7943L21.0505 10.6523H21.7902L20.3556 11.7061L20.8818 13.3387H20.2551L19.8744 12.059L19.2476 12.5186L18.8964 13.3387H18.3455Z"
      fill="#0157A5" />
    <path
      d="M20.9994 13.3387L21.1789 12.9147L23.1287 11.1026H21.8706L22.0641 10.6523H24.0015L23.8313 11.067L21.866 12.893H22.1554H22.6413H23.2758L23.0839 13.3434L20.9994 13.3387Z"
      fill="#0157A5" />
    <path fill-rule="evenodd" clip-rule="evenodd"
      d="M7.4202 10.6353C6.73467 10.6801 6.04913 10.725 5.10671 10.7745C4.16429 10.824 2.98046 10.8798 2.08601 10.8581C1.38593 10.8383 0.688464 10.7638 0 10.6353C0.215632 10.8422 0.470221 11.0042 0.748984 11.1119C1.27245 11.2846 1.82331 11.3591 2.37385 11.3316C3.26111 11.2991 4.14544 11.2107 5.0216 11.067C5.90367 10.9386 6.6542 10.7869 7.4202 10.6353Z"
      fill="#0157A5" />
    <path fill-rule="evenodd" clip-rule="evenodd"
      d="M7.24529 11.1335C6.23633 11.3069 5.23356 11.4802 4.54028 11.5978C3.84701 11.7154 3.48644 11.7525 3.12897 11.7789C2.79877 11.803 2.46723 11.803 2.13703 11.7789C1.89114 11.7541 1.64715 11.7133 1.40662 11.6566C1.70356 11.7995 2.01479 11.9105 2.33511 11.9878C2.80434 12.0887 3.28353 12.136 3.76344 12.1286C4.25504 12.1112 4.7453 12.0668 5.23201 11.9955L6.04753 11.8949C5.92918 12.0498 5.84003 12.2249 5.78446 12.4118C5.74523 12.5971 5.75699 12.7897 5.81851 12.9689C5.86813 13.0964 5.9465 13.2108 6.04753 13.3031C6.11082 13.0148 6.19937 12.7326 6.31216 12.4597C6.43937 12.1863 6.59498 11.9269 6.7764 11.686C6.92098 11.4921 7.07596 11.3061 7.24065 11.1289"
      fill="#0157A5" />
  </g>
  <defs>
    <clipPath id="clip0_1286_7724">
      <rect width="24" height="24" fill="white" />
    </clipPath>
  </defs>
</svg>