<svg width="24" height="24" viewBox="0 0 24 24" fill="none" xmlns="http://www.w3.org/2000/svg">
  <rect width="24" height="24" rx="4" fill="white" />
  <path fill-rule="evenodd" clip-rule="evenodd"
    d="M11.7239 1.83244C10.9837 3.00167 0 22.2234 0 22.3494C0 22.4394 4.84773 22.5 12.0321 22.5C18.6496 22.5 24.0352 22.4445 23.9998 22.3768C23.9645 22.3092 23.3583 21.2381 22.653 19.9971L21.3704 17.7406L14.6978 17.6978L8.02524 17.6549L11.2883 11.9886C13.083 8.87213 14.5527 6.22391 14.5545 6.10368C14.5569 5.93829 12.272 1.79992 12.0149 1.50396C11.9884 1.47358 11.8574 1.62139 11.7239 1.83244Z"
    fill="#0066B3" />
  <path d="M14.5577 6.07593L8.01489 17.6549L21.3692 17.7388L14.5577 6.07593Z" fill="#FECC04" />
</svg>