<svg width="24" height="24" viewBox="0 0 24 24" fill="none" xmlns="http://www.w3.org/2000/svg">
  <g clip-path="url(#clip0_1286_7679)">
    <rect width="24" height="24" rx="4" fill="white" />
    <path
      d="M21.5248 4.68176C22.0853 5.41477 22.5523 6.2187 22.9492 7.06993L12.1615 15.1329L7.63159 12.2482V8.79605L12.1381 11.6571L21.5248 4.68176Z"
      fill="#21A038" />
    <path
      d="M3.03199 12.0118C3.03199 11.8463 3.03199 11.7044 3.05535 11.5389L0.323399 11.397C0.323399 11.5862 0.300049 11.799 0.300049 11.9881C0.300049 15.2986 1.631 18.3015 3.77919 20.4768L5.71725 18.5142C4.0594 16.8591 3.03199 14.5655 3.03199 12.0118Z"
      fill="url(#paint0_linear_1286_7679)" />
    <path
      d="M12.1382 2.79012C12.3017 2.79012 12.4418 2.79012 12.6052 2.81377L12.7453 0.0472653C12.5586 0.0472653 12.3483 0.0236206 12.1616 0.0236206C8.89259 0.0236206 5.92714 1.3714 3.77893 3.54677L5.71699 5.50934C7.35148 3.83052 9.63979 2.79012 12.1382 2.79012Z"
      fill="url(#paint1_linear_1286_7679)" />
    <path
      d="M12.1382 21.2334C11.9748 21.2334 11.8347 21.2335 11.6712 21.2098L11.5311 23.9764C11.7179 23.9764 11.9281 24 12.1149 24C15.3839 24 18.3493 22.6522 20.4975 20.4768L18.5595 18.5142C16.9249 20.2167 14.66 21.2334 12.1382 21.2334Z"
      fill="url(#paint2_linear_1286_7679)" />
    <path
      d="M17.2751 4.39803L19.5868 2.67192C17.5554 1.01674 14.9635 0 12.1382 0V2.76651C14.0529 2.79015 15.8274 3.38128 17.2751 4.39803Z"
      fill="url(#paint3_linear_1286_7679)" />
    <path
      d="M24.0001 12.0118C24.0001 11.2788 23.93 10.5695 23.8133 9.86011L21.2681 11.7754C21.2681 11.8463 21.2681 11.9409 21.2681 12.0118C21.2681 14.731 20.1006 17.1664 18.256 18.8453L20.1006 20.9025C22.4823 18.7271 24.0001 15.5349 24.0001 12.0118Z"
      fill="#21A038" />
    <path
      d="M12.1382 21.2335C9.453 21.2335 7.04795 20.0512 5.3901 18.1832L3.35864 20.0512C5.5302 22.4867 8.6591 24 12.1382 24V21.2335Z"
      fill="url(#paint4_linear_1286_7679)" />
    <path
      d="M6.04414 5.1783L4.1995 3.12115C1.79445 5.32016 0.300049 8.48864 0.300049 12.0117H3.03199C3.03199 9.31622 4.1995 6.85711 6.04414 5.1783Z"
      fill="url(#paint5_linear_1286_7679)" />
  </g>
  <defs>
    <linearGradient id="paint0_linear_1286_7679" x1="4.34117" y1="20.1403" x2="1.28185" y2="11.4075"
      gradientUnits="userSpaceOnUse">
      <stop offset="0.1444" stop-color="#F2E913" />
      <stop offset="0.3037" stop-color="#E7E518" />
      <stop offset="0.5823" stop-color="#CADB26" />
      <stop offset="0.891" stop-color="#A3CD39" />
    </linearGradient>
    <linearGradient id="paint1_linear_1286_7679" x1="4.55768" y1="4.0295" x2="12.2868" y2="1.12084"
      gradientUnits="userSpaceOnUse">
      <stop offset="0.0592" stop-color="#0FA8E0" />
      <stop offset="0.5385" stop-color="#0099F9" />
      <stop offset="0.9234" stop-color="#0291EB" />
    </linearGradient>
    <linearGradient id="paint2_linear_1286_7679" x1="11.3707" y1="22.3097" x2="20.0941" y2="20.3627"
      gradientUnits="userSpaceOnUse">
      <stop offset="0.1226" stop-color="#A3CD39" />
      <stop offset="0.2846" stop-color="#86C339" />
      <stop offset="0.8693" stop-color="#21A038" />
    </linearGradient>
    <linearGradient id="paint3_linear_1286_7679" x1="11.5769" y1="0.933232" x2="19.0423" y2="3.20787"
      gradientUnits="userSpaceOnUse">
      <stop offset="0.0566" stop-color="#0291EB" />
      <stop offset="0.79" stop-color="#0C8ACB" />
    </linearGradient>
    <linearGradient id="paint4_linear_1286_7679" x1="4.05329" y1="19.7064" x2="12.1866" y2="22.7073"
      gradientUnits="userSpaceOnUse">
      <stop offset="0.1324" stop-color="#F2E913" />
      <stop offset="0.2977" stop-color="#EBE716" />
      <stop offset="0.5306" stop-color="#D9E01F" />
      <stop offset="0.8023" stop-color="#BBD62D" />
      <stop offset="0.9829" stop-color="#A3CD39" />
    </linearGradient>
    <linearGradient id="paint5_linear_1286_7679" x1="1.32476" y1="12.3459" x2="4.65156" y2="3.7998"
      gradientUnits="userSpaceOnUse">
      <stop offset="0.0698" stop-color="#A3CD39" />
      <stop offset="0.2599" stop-color="#81C55F" />
      <stop offset="0.9216" stop-color="#0FA8E0" />
    </linearGradient>
    <clipPath id="clip0_1286_7679">
      <rect width="24" height="24" rx="4" fill="white" />
    </clipPath>
  </defs>
</svg>