<svg width="24" height="24" viewBox="0 0 24 24" fill="none" xmlns="http://www.w3.org/2000/svg">
  <rect width="24" height="24" rx="4" fill="white" />
  <path fill-rule="evenodd" clip-rule="evenodd"
    d="M7.43472 9.45004H3.29546L3.5941 8.55408H7.73336L7.43472 9.45004ZM7.28528 9.898H3.14594L2.8473 10.7939H6.98664L7.28528 9.898ZM6.83792 11.2419H2.69866L2.40002 12.1379H6.53928L6.83792 11.2419Z"
    fill="#00AAFF" />
  <path
    d="M11.0342 15.439L9.33337 9.9347H10.5266L11.1857 12.328C11.376 13.0395 11.4784 13.4151 11.6053 14.0097C11.7199 13.4401 11.7956 13.1751 12.0146 12.3656L12.6716 9.9347H13.8137L12.0883 15.439H11.0342ZM15.5985 15.439V10.8486H14.0368V9.9347H18.3759L18.0689 10.859H16.6833V15.439H15.5985ZM19.7902 12.136H20.4043C20.5274 12.1412 20.6507 12.1293 20.7706 12.1005C20.8981 12.0586 21.008 11.974 21.0823 11.8603C21.1567 11.7467 21.1911 11.6107 21.18 11.4746C21.1966 11.3393 21.1641 11.2026 21.0887 11.09C21.0133 10.9774 20.9002 10.8968 20.7706 10.8632C20.6366 10.8311 20.4988 10.8184 20.3613 10.8257H19.7902V12.136ZM19.7902 13.0896V14.5502H20.5393C20.7458 14.5747 20.9536 14.5163 21.1186 14.3874C21.1904 14.3145 21.2459 14.2265 21.2813 14.1296C21.3166 14.0328 21.3309 13.9292 21.3233 13.8261C21.328 13.6558 21.2792 13.4884 21.1841 13.3483C21.0244 13.1396 20.8279 13.1 20.4902 13.1L19.7902 13.0896ZM21.53 12.5179V12.5366C21.7124 12.6072 21.8824 12.7072 22.0335 12.8329C22.1877 12.9628 22.3097 13.1281 22.3894 13.3152C22.4691 13.5023 22.5042 13.706 22.492 13.9096C22.492 14.6628 22.099 15.2074 21.4543 15.3702C21.1968 15.431 20.9321 15.4541 20.6683 15.439H18.7136V9.9347H20.4432C20.7181 9.92433 20.9932 9.94958 21.2619 10.0098C21.8881 10.1809 22.2996 10.6212 22.2996 11.316C22.3045 11.4817 22.2765 11.6466 22.217 11.8008C22.1575 11.9551 22.0679 12.0954 21.9537 12.2132C21.8344 12.3433 21.6902 12.447 21.53 12.5179Z"
    fill="#002882" />
</svg>