<svg width="29" height="28" viewBox="0 0 29 28" fill="none" xmlns="http://www.w3.org/2000/svg">
  <path
    d="M14.25 24.5C20.049 24.5 24.75 19.799 24.75 14C24.75 8.20101 20.049 3.5 14.25 3.5C8.45101 3.5 3.75 8.20101 3.75 14C3.75 19.799 8.45101 24.5 14.25 24.5Z"
    stroke="#9494A6" stroke-width="1.6" stroke-linecap="round" stroke-linejoin="round" />
  <path d="M10.75 11.6666H10.7617" stroke="#9494A6" stroke-width="1.6" stroke-linecap="round" stroke-linejoin="round" />
  <path d="M17.75 11.6666H17.7617" stroke="#9494A6" stroke-width="1.6" stroke-linecap="round" stroke-linejoin="round" />
  <path
    d="M11.3335 17.5C11.7137 17.888 12.1675 18.1963 12.6683 18.4067C13.1691 18.6172 13.7069 18.7256 14.2502 18.7256C14.7934 18.7256 15.3312 18.6172 15.832 18.4067C16.3328 18.1963 16.7866 17.888 17.1668 17.5"
    stroke="#9494A6" stroke-width="1.6" stroke-linecap="round" stroke-linejoin="round" />
</svg>