<svg width="24" height="24" viewBox="0 0 24 24" fill="none" xmlns="http://www.w3.org/2000/svg">
  <path
    d="M19.5 5.25H16.9031L15.6281 3.3375C15.5603 3.23293 15.4672 3.14718 15.3574 3.08818C15.2476 3.02919 15.1246 2.99886 15 3H9C8.87536 2.99886 8.75245 3.02919 8.64265 3.08818C8.53285 3.14718 8.43971 3.23293 8.37188 3.3375L7.09687 5.25H4.5C3.90402 5.25247 3.33316 5.49031 2.91174 5.91174C2.49031 6.33316 2.25247 6.90402 2.25 7.5V18C2.25247 18.596 2.49031 19.1668 2.91174 19.5883C3.33316 20.0097 3.90402 20.2475 4.5 20.25H19.5C20.096 20.2475 20.6668 20.0097 21.0883 19.5883C21.5097 19.1668 21.7475 18.596 21.75 18V7.5C21.7475 6.90402 21.5097 6.33316 21.0883 5.91174C20.6668 5.49031 20.096 5.25247 19.5 5.25ZM15.375 12.375C15.375 13.0425 15.1771 13.695 14.8062 14.25C14.4354 14.8051 13.9083 15.2376 13.2916 15.4931C12.6749 15.7485 11.9963 15.8154 11.3416 15.6851C10.6869 15.5549 10.0855 15.2335 9.61351 14.7615C9.14151 14.2895 8.82007 13.6881 8.68985 13.0334C8.55962 12.3787 8.62646 11.7001 8.88191 11.0834C9.13735 10.4667 9.56993 9.93964 10.125 9.56879C10.68 9.19794 11.3325 9 12 9C12.8951 9 13.7535 9.35558 14.3865 9.98851C15.0194 10.6214 15.375 11.4799 15.375 12.375Z"
    fill="#1A1A2B" />
</svg>