<svg width="24" height="24" viewBox="0 0 24 24" fill="none" xmlns="http://www.w3.org/2000/svg">
  <path
    d="M6.34319 17.6569C5.95266 17.2663 5.95266 16.6332 6.34319 16.2426L16.2427 6.34315C16.6332 5.95262 17.2664 5.95262 17.6569 6.34315C18.0474 6.73367 18.0474 7.36684 17.6569 7.75736L7.7574 17.6569C7.36688 18.0474 6.73371 18.0474 6.34319 17.6569Z"
    fill="#1A1A2B" />
  <path
    d="M6.34319 6.34315C6.73371 5.95262 7.36688 5.95262 7.7574 6.34315L17.6569 16.2426C18.0474 16.6332 18.0474 17.2663 17.6569 17.6569C17.2664 18.0474 16.6332 18.0474 16.2427 17.6569L6.34319 7.75736C5.95266 7.36684 5.95266 6.73367 6.34319 6.34315Z"
    fill="#1A1A2B" />
</svg>