<svg width="24" height="24" viewBox="0 0 24 24" fill="none" xmlns="http://www.w3.org/2000/svg">
  <path
    d="M21 4.5H3C2.60218 4.5 2.22064 4.65804 1.93934 4.93934C1.65804 5.22064 1.5 5.60218 1.5 6V9.08438V17.9906C1.5 18.3885 1.65804 18.77 1.93934 19.0513C2.22064 19.3326 2.60218 19.4906 3 19.4906H21C21.3978 19.4906 21.7794 19.3326 22.0607 19.0513C22.342 18.77 22.5 18.3885 22.5 17.9906V6C22.5 5.60218 22.342 5.22064 22.0607 4.93934C21.7794 4.65804 21.3978 4.5 21 4.5ZM12.75 16.5H11.25C11.0511 16.5 10.8603 16.421 10.7197 16.2803C10.579 16.1397 10.5 15.9489 10.5 15.75C10.5 15.5511 10.579 15.3603 10.7197 15.2197C10.8603 15.079 11.0511 15 11.25 15H12.75C12.9489 15 13.1397 15.079 13.2803 15.2197C13.421 15.3603 13.5 15.5511 13.5 15.75C13.5 15.9489 13.421 16.1397 13.2803 16.2803C13.1397 16.421 12.9489 16.5 12.75 16.5ZM18.75 16.5H15.75C15.5511 16.5 15.3603 16.421 15.2197 16.2803C15.079 16.1397 15 15.9489 15 15.75C15 15.5511 15.079 15.3603 15.2197 15.2197C15.3603 15.079 15.5511 15 15.75 15H18.75C18.9489 15 19.1397 15.079 19.2803 15.2197C19.421 15.3603 19.5 15.5511 19.5 15.75C19.5 15.9489 19.421 16.1397 19.2803 16.2803C19.1397 16.421 18.9489 16.5 18.75 16.5ZM3 8.33438V6H21V8.33438H3Z"
    fill="#1A1A2B" />
</svg>