<svg width="24" height="24" viewBox="0 0 24 24" fill="none" xmlns="http://www.w3.org/2000/svg">
  <path opacity="0.32"
    d="M2 6.71428C2 5.7675 2.76751 4.99999 3.71429 4.99999H20.2857C21.2325 4.99999 22 5.7675 22 6.71428V17.2857C22 18.2325 21.2325 19 20.2857 19H3.71429C2.76751 19 2 18.2325 2 17.2857V6.71428Z"
    fill="#1A1A2B" />
  <rect x="2" y="7.99999" width="20" height="3" fill="#1A1A2B" />
  <path opacity="0.32"
    d="M16 14.8571C16 14.3837 16.3838 14 16.8571 14H19.1429C19.6162 14 20 14.3837 20 14.8571V15.1429C20 15.6162 19.6162 16 19.1429 16H16.8571C16.3838 16 16 15.6162 16 15.1429V14.8571Z"
    fill="#1A1A2B" />
</svg>