<svg width="39" height="24" viewBox="0 0 39 24" fill="none" xmlns="http://www.w3.org/2000/svg">
  <g clip-path="url(#clip0_539_3030)">
    <g opacity="0.32">
      <path
        d="M28.3505 4.20009V3.54383C28.3505 2.60394 27.9771 1.70256 27.3126 1.03796C26.648 0.373367 25.7466 0 24.8067 0H3.54382C2.60393 0 1.70255 0.373367 1.03796 1.03796C0.373365 1.70256 0 2.60394 0 3.54383V4.20009H28.3505Z"
        fill="#9494A6" />
      <path
        d="M0 7.34973V15.3999C0 16.3282 0.373365 17.2184 1.03796 17.8749C1.70255 18.5312 2.60393 18.9 3.54382 18.9H24.8067C25.7466 18.9 26.648 18.5312 27.3126 17.8749C27.9771 17.2184 28.3505 16.3282 28.3505 15.3999V7.34973H0Z"
        fill="#9494A6" />
      <path d="M28.3505 4.20009H0V7.34973H28.3505V4.20009Z" fill="#9494A6" />
    </g>
    <path
      d="M7.37507 7.875H5.22507C4.94892 7.875 4.72507 8.09886 4.72507 8.375V10.525C4.72507 10.8011 4.94892 11.025 5.22507 11.025H7.37507C7.65121 11.025 7.87507 10.8011 7.87507 10.525V8.375C7.87507 8.09886 7.65121 7.875 7.37507 7.875Z"
      fill="#9494A6" />
    <path
      d="M38.4001 9.30012V8.64387C38.4001 7.704 38.0267 6.80263 37.3622 6.13804C36.6976 5.47346 35.7962 5.1001 34.8564 5.1001H13.5938C12.6539 5.1001 11.7526 5.47346 11.088 6.13804C10.4234 6.80263 10.05 7.704 10.05 8.64387V9.30012H38.4001Z"
      fill="white" />
    <path
      d="M10.05 12.4487V20.4987C10.05 21.427 10.4233 22.3172 11.0879 22.9737C11.7525 23.6301 12.6539 23.9988 13.5937 23.9988H34.8563C35.7962 23.9988 36.6976 23.6301 37.3621 22.9737C38.0267 22.3172 38.4001 21.427 38.4001 20.4987V12.4487H10.05Z"
      fill="white" />
    <path d="M38.4001 9.30029H10.05V12.4503H38.4001V9.30029Z" fill="#6D6D7F" />
    <rect x="14.2458" y="15.6006" width="19.949" height="4.19581" rx="1" fill="#9494A6" />
    <path d="M28.4416 16.2401H27.8265L27.1497 16.6878V17.2981L27.7635 16.8989H27.7796V19.1603H28.4416V16.2401Z"
      fill="white" />
    <path
      d="M29.1993 19.1603H31.231V18.5914H30.1187V18.5728L30.447 18.2506C31.042 17.6988 31.1975 17.4179 31.1975 17.0828C31.1975 16.5567 30.7941 16.2002 30.1709 16.2002C29.5638 16.2002 29.1578 16.5723 29.1591 17.1669H29.7876C29.7876 16.9031 29.9404 16.7506 30.1682 16.7506C30.392 16.7506 30.5542 16.8974 30.5542 17.1384C30.5542 17.3566 30.4255 17.5049 30.2004 17.7202L29.1993 18.6527V19.1603Z"
      fill="white" />
    <path
      d="M32.8008 19.2002C33.4441 19.2002 33.9011 18.838 33.8997 18.3304C33.9011 17.9711 33.6799 17.7145 33.2564 17.6617V17.6389C33.5741 17.5904 33.7992 17.3637 33.7979 17.0357C33.7992 16.5595 33.3945 16.2002 32.8062 16.2002C32.2138 16.2002 31.7823 16.5652 31.7769 17.0842H32.4108C32.4162 16.8846 32.585 16.7506 32.8062 16.7506C33.0166 16.7506 33.16 16.886 33.1586 17.0814C33.16 17.2838 32.9911 17.4236 32.7472 17.4236H32.4805V17.9255H32.7472C33.0246 17.9255 33.2055 18.0709 33.2028 18.2762C33.2055 18.483 33.0393 18.627 32.8035 18.627C32.569 18.627 32.3961 18.4944 32.3894 18.3019H31.722C31.7273 18.8295 32.1736 19.2002 32.8008 19.2002Z"
      fill="white" />
    <path
      d="M31.7174 14.5518H29.0173C27.1534 14.5518 25.6423 16.0326 25.6423 17.8593C25.6423 19.6859 27.1534 21.1668 29.0173 21.1668H31.7174C33.5813 21.1668 35.0924 19.6859 35.0924 17.8593C35.0924 16.0326 33.5813 14.5518 31.7174 14.5518Z"
      stroke="#6467AA" />
  </g>
  <defs>
    <clipPath id="clip0_539_3030">
      <rect width="38.4" height="24" fill="white" />
    </clipPath>
  </defs>
</svg>