<svg width="24" height="24" viewBox="0 0 24 24" fill="none" xmlns="http://www.w3.org/2000/svg">
  <path
    d="M12 2.25C10.0716 2.25 8.18657 2.82183 6.58319 3.89317C4.97981 4.96451 3.73013 6.48726 2.99218 8.26884C2.25422 10.0504 2.06114 12.0108 2.43735 13.9021C2.81355 15.7934 3.74215 17.5307 5.10571 18.8943C6.46927 20.2579 8.20656 21.1864 10.0979 21.5627C11.9892 21.9389 13.9496 21.7458 15.7312 21.0078C17.5127 20.2699 19.0355 19.0202 20.1068 17.4168C21.1782 15.8134 21.75 13.9284 21.75 12C21.747 9.41506 20.7188 6.93684 18.891 5.10901C17.0632 3.28118 14.5849 2.25299 12 2.25Z"
    fill="#DE3030" />
  <path
    d="M15.3885 14.3704C15.4555 14.4373 15.5086 14.5166 15.5449 14.604C15.5812 14.6914 15.5999 14.7851 15.5999 14.8797C15.6 14.9743 15.5814 15.068 15.5452 15.1554C15.509 15.2428 15.4559 15.3222 15.389 15.3891C15.3221 15.456 15.2427 15.5091 15.1553 15.5453C15.0679 15.5815 14.9742 15.6001 14.8796 15.6C14.785 15.6 14.6913 15.5813 14.6039 15.545C14.5165 15.5087 14.4372 15.4556 14.3703 15.3886L11.9994 13.0176L9.62837 15.3886C9.49331 15.5234 9.31026 15.599 9.11946 15.5989C8.92865 15.5988 8.74569 15.523 8.61077 15.3881C8.47585 15.2531 8.4 15.0702 8.3999 14.8794C8.3998 14.6886 8.47545 14.5055 8.61023 14.3704L10.9812 11.9995L8.61023 9.62847C8.47545 9.49341 8.3998 9.31036 8.3999 9.11956C8.4 8.92875 8.47585 8.74579 8.61077 8.61087C8.74569 8.47595 8.92865 8.4001 9.11946 8.4C9.31026 8.3999 9.49331 8.47555 9.62837 8.61033L11.9994 10.9813L14.3703 8.61033C14.5054 8.47555 14.6885 8.3999 14.8793 8.4C15.0701 8.4001 15.253 8.47595 15.388 8.61087C15.5229 8.74579 15.5987 8.92875 15.5988 9.11956C15.5989 9.31036 15.5233 9.49341 15.3885 9.62847L13.0175 11.9995L15.3885 14.3704Z"
    fill="white" />
</svg>