<svg width="24" height="24" viewBox="0 0 24 24" fill="none" xmlns="http://www.w3.org/2000/svg">
  <path
    d="M11.1225 3.06377C11.5744 3.01666 11.8143 3.58001 11.5385 3.94106C10.742 4.98358 10.2283 6.22327 10.0593 7.53922C9.83602 9.2786 10.2293 11.0412 11.1708 12.5207C12.1122 14.0002 13.5424 15.103 15.2126 15.6375C16.501 16.0497 17.8694 16.1037 19.1738 15.8047C19.6064 15.7055 20.0054 16.1327 19.7823 16.5164C19.1685 17.5718 18.3443 18.495 17.3562 19.2263C16.0466 20.1955 14.4985 20.791 12.8769 20.9494C11.2554 21.1077 9.62129 20.823 8.14892 20.1254C6.67654 19.4278 5.42114 18.3437 4.51661 16.9886C3.61209 15.6335 3.09238 14.0583 3.01291 12.431C2.93345 10.8037 3.29721 9.1853 4.0654 7.74851C4.83359 6.31173 5.97739 5.11042 7.37479 4.27273C8.54675 3.57019 9.80652 3.20098 11.1225 3.06377Z"
    fill="#1A1A2B" />
</svg>